<svg width="136" height="34" viewBox="0 0 136 34" fill="none" xmlns="http://www.w3.org/2000/svg">
    <path d="M124.402 7.10808C118.359 7.10808 113.469 11.6751 113.469 17.3132C113.469 22.9513 118.359 27.5184 124.402 27.5184C130.444 27.5184 135.334 22.9513 135.334 17.3132C135.334 11.6751 130.444 7.10808 124.402 7.10808ZM124.402 21.7186C120.603 21.7186 117.531 19.7786 117.531 17.3941C117.531 15.0095 120.603 13.0695 124.402 13.0695C128.201 13.0695 131.272 15.0095 131.272 17.3941C131.272 19.7786 128.201 21.7186 124.402 21.7186ZM22.1886 6.80495H16.2474V9.6341C14.5297 8.09828 12.3068 7.12829 9.84139 7.12829C4.40538 7.12829 0 11.6953 0 17.3334C0 22.9715 4.40538 27.5386 9.84139 27.5386C12.3068 27.5386 14.5095 26.5686 16.2474 25.0328V27.7002H26.109V21.7186H22.1886V6.80495ZM16.2676 20.304C16.2676 20.304 14.2064 21.5974 11.6197 21.7186C7.31537 21.9005 4.2437 19.8595 4.2437 17.4749C4.2437 15.0903 6.99204 13.1099 11.6197 13.0695C14.2872 13.0493 16.2676 14.6457 16.2676 14.6457V20.304ZM53.9963 21.6984H88.6534V15.7168H53.9963V21.6984ZM42.3564 9.6139C40.6387 8.07808 38.4158 7.10808 35.9504 7.10808C30.5144 7.10808 26.109 11.6751 26.109 17.3132C26.109 22.9513 30.5144 27.5184 35.9504 27.5184C38.4158 27.5184 40.6185 26.5484 42.3564 25.0126V27.68H48.2976V0.5H42.3564V9.6139ZM42.3564 20.304C42.3564 20.304 40.2952 21.5974 37.7085 21.7186C33.4042 21.9005 30.3325 19.8595 30.3325 17.4749C30.3325 15.0903 33.0808 13.1099 37.7085 13.0695C40.376 13.0493 42.3564 14.6457 42.3564 14.6457V20.304ZM109.023 7.1687L103.931 19.8392L98.616 7.10808H92.21L98.3129 21.5569L103.244 21.5771L100.859 27.5184H93.9681V33.5H103.81V33.4798H104.901L115.369 7.10808L109.023 7.1687Z" fill="#1D1D1B"/>
</svg>
