<svg width="40" height="40" viewBox="0 0 40 40" fill="none" xmlns="http://www.w3.org/2000/svg">
    <g clip-path="url(#clip0_44_951)">
        <path fill-rule="evenodd" clip-rule="evenodd" d="M3.33333 0C1.49238 0 0 1.49238 0 3.33333V36.6667C0 38.5076 1.49238 40 3.33333 40H36.6667C38.5076 40 40 38.5076 40 36.6667V3.33333C40 1.49238 38.5076 0 36.6667 0H3.33333ZM8.6288 31.6667H13.6303V15.9235H8.6288V31.6667ZM11.0964 13.7729H11.1299C12.8732 13.7729 13.96 12.5637 13.96 11.0531C13.9265 9.50887 12.8739 8.33333 11.1627 8.33333C9.45223 8.33333 8.33333 9.50887 8.33333 11.0531C8.33333 12.5637 9.41873 13.7729 11.0964 13.7729ZM26.6645 31.6667H31.666L31.6667 22.6381C31.6667 17.8021 29.1991 15.5513 25.9087 15.5513C23.2535 15.5513 22.0649 17.0787 21.4003 18.1512V15.9228H16.3988C16.4644 17.3983 16.3988 31.666 16.3988 31.666H21.4003V22.8736C21.4003 22.4026 21.4325 21.9329 21.5644 21.5972C21.9269 20.6565 22.7497 19.6828 24.1312 19.6828C25.9409 19.6828 26.6645 21.1268 26.6645 23.2424V31.6667Z" fill="black"/>
    </g>
    <defs>
        <clipPath id="clip0_44_951">
            <rect width="40" height="40" fill="white"/>
        </clipPath>
    </defs>
</svg>
