<svg width="40" height="40" viewBox="0 0 40 40" fill="none" xmlns="http://www.w3.org/2000/svg">
    <g clip-path="url(#clip0_44_952)">
        <path fill-rule="evenodd" clip-rule="evenodd" d="M20 40C31.0457 40 40 31.0457 40 20C40 8.9543 31.0457 0 20 0C8.9543 0 0 8.9543 0 20C0 31.0457 8.9543 40 20 40ZM29.9893 11.4133C30.1692 9.31085 28.0107 10.1766 28.0107 10.1766C26.417 10.8551 24.7733 11.5448 23.1119 12.2418C17.9604 14.4032 12.6382 16.6361 8.10453 18.8337C5.64623 19.7613 7.08523 20.6889 7.08523 20.6889L10.9826 21.9256C12.7813 22.4821 13.7406 21.8638 13.7406 21.8638L22.1348 15.9893C25.1327 13.8868 24.4132 15.6182 23.6937 16.3603L17.3981 22.5439C16.4387 23.4096 16.9184 24.1517 17.3381 24.5227C18.5276 25.6022 21.4537 27.5773 22.7312 28.4396C23.0637 28.664 23.2844 28.813 23.334 28.8513C23.6338 29.0987 25.2526 30.2117 26.3319 29.9644C27.4112 29.717 27.5311 28.2948 27.5311 28.2948L28.9701 18.5864C29.1859 16.901 29.4335 15.281 29.6312 13.9871C29.8179 12.765 29.9602 11.8338 29.9893 11.4133Z" fill="black"/>
    </g>
    <defs>
        <clipPath id="clip0_44_952">
            <rect width="40" height="40" fill="white"/>
        </clipPath>
    </defs>
</svg>
