<svg width="40" height="40" viewBox="0 0 40 40" fill="none" xmlns="http://www.w3.org/2000/svg">
    <g clip-path="url(#clip0_44_950)">
        <path fill-rule="evenodd" clip-rule="evenodd" d="M0 3.33333C0 1.49238 1.49238 0 3.33333 0H36.6667C38.5076 0 40 1.49238 40 3.33333V36.6667C40 38.5076 38.5076 40 36.6667 40H3.33333C1.49238 40 0 38.5076 0 36.6667V3.33333ZM25.3923 33.3333L18.1213 22.9783L9.01906 33.3333H6.66667L17.0781 21.4922L6.66667 6.66667H14.6077L21.4913 16.4699L30.116 6.66667H32.4683L22.54 17.9594L33.3333 33.3333H25.3923ZM13.4803 8.40169L20.2558 17.8823L21.3079 19.3595L30.114 31.6823H26.5002L19.3162 21.6221L18.2597 20.1449L9.86654 8.40169H13.4803Z" fill="black"/>
    </g>
    <defs>
        <clipPath id="clip0_44_950">
            <rect width="40" height="40" fill="white"/>
        </clipPath>
    </defs>
</svg>
