<svg width="65" height="1034" viewBox="0 0 65 1034" fill="none" xmlns="http://www.w3.org/2000/svg">
    <g clip-path="url(#clip0_6_58)">
        <path d="M64.5001 384.673L64.5001 379.908L53.8334 379.908L53.8334 375.143L39.6112 375.143L39.6112 379.908L50.2779 379.908L50.2779 384.673L64.5001 384.673Z" fill="black"/>
        <path d="M56.7963 307.243L56.7963 295.33L42.5741 295.33L42.5741 307.243L56.7963 307.243Z" fill="black"/>
        <path d="M56.2038 220.282L56.2038 222.665L41.9815 222.665L41.9815 220.282L56.2038 220.282Z" fill="black"/>
        <path d="M41.389 55.2968L41.389 64.8266L34.8704 64.8266L34.8704 75.548L30.1297 75.548L30.1297 64.8266L23.6112 64.8266L23.6112 55.2968L25.9815 55.2968L25.9815 43.3845L39.0186 43.3845L39.0186 55.2968L41.389 55.2968Z" fill="black"/>
        <path d="M36.6482 17.1773L36.6482 0.5L28.3519 0.5L28.3519 17.1773L26.5741 17.1773L26.5741 21.9422L28.3519 21.9422L28.3519 32.6633L36.6482 32.6633L36.6482 21.9422L38.426 21.9422L38.426 17.1773L36.6482 17.1773Z" fill="black"/>
        <path d="M34.8704 104.733L34.8704 110.689L41.389 110.689L41.389 115.454L39.0186 115.454L39.0186 121.41L25.9815 121.41L25.9815 115.454L23.6112 115.454L23.6112 110.689L30.1297 110.689L30.1297 104.733L34.8704 104.733Z" fill="black"/>
        <path d="M36.6482 132.727L36.6482 126.771L28.3519 126.771L28.3519 132.727L26.5741 132.727L26.5741 138.683L38.426 138.683L38.426 132.727L36.6482 132.727Z" fill="black"/>
        <path d="M38.426 189.906L38.426 193.48L36.6482 193.48L36.6482 198.245L28.3519 198.245L28.3519 193.48L26.5741 193.48L26.5741 189.906L38.426 189.906Z" fill="black"/>
        <path d="M38.426 203.605L38.426 205.988L39.0186 205.988L39.0186 208.37L41.389 208.37L41.389 210.752L34.8704 210.752L34.8704 215.518L30.1297 215.518L30.1297 210.752L23.6112 210.752L23.6112 208.37L25.9815 208.37L25.9815 205.988L26.5742 205.988L26.5742 203.605L38.426 203.605Z" fill="black"/>
        <path d="M34.2778 231.599L34.2778 229.217L30.7222 229.217L30.7222 231.599L34.2778 231.599Z" fill="black"/>
        <path d="M34.2778 270.91L34.2778 282.822L30.7222 282.822L30.7222 270.91L34.2778 270.91Z" fill="black"/>
        <path d="M34.8704 317.963L34.8704 325.111L41.3889 325.111L41.3889 329.876L39.0186 329.876L39.0186 335.832L25.9815 335.832L25.9815 329.876L23.6111 329.876L23.6111 325.111L30.1297 325.111L30.1297 317.963L34.8704 317.963Z" fill="black"/>
        <path d="M36.6482 350.723L36.6482 343.575L28.3519 343.575L28.3519 350.723L26.5741 350.723L26.5741 355.487L38.426 355.487L38.426 350.723L36.6482 350.723Z" fill="black"/>
        <path d="M25.3889 375.143L25.3889 379.908L14.7222 379.908L14.7222 384.673L0.500021 384.673L0.500021 379.908L11.1667 379.908L11.1667 375.143L25.3889 375.143Z" fill="black"/>
        <path d="M63.9075 473.42L63.9075 468.655L50.8704 468.655L50.8704 474.611L39.6112 474.611L39.6112 476.993L53.8334 476.993L53.8334 474.611L54.426 474.611L54.426 473.42L63.9075 473.42Z" fill="black"/>
        <path d="M14.7222 468.655L14.7222 474.611L25.3889 474.611L25.3889 476.993L11.1667 476.993L11.1667 473.42L1.68548 473.42L1.68549 468.655L14.7222 468.655Z" fill="black"/>
        <path d="M38.426 493.074L38.426 496.648L36.6482 496.648L36.6482 502.605L28.3519 502.605L28.3519 496.648L26.5741 496.648L26.5741 493.074L38.426 493.074Z" fill="black"/>
        <path d="M38.426 506.774L38.426 511.539L41.3889 511.539L41.3889 515.113L34.8704 515.113L34.8704 518.686L30.1297 518.686L30.1297 515.113L23.6111 515.113L23.6111 511.539L26.5741 511.539L26.5741 506.774L38.426 506.774Z" fill="black"/>
        <path d="M56.7963 530.003L56.7963 525.238L42.5741 525.238L42.5741 530.003L56.7963 530.003Z" fill="black"/>
        <path d="M22.426 525.238L22.426 530.003L8.20376 530.003L8.20376 525.238L22.426 525.238Z" fill="black"/>
        <path d="M34.2778 538.937L34.2778 535.363L30.7222 535.363L30.7222 538.937L34.2778 538.937Z" fill="black"/>
        <path d="M34.2778 541.32L34.2778 549.658L30.7222 549.658L30.7222 541.32L34.2778 541.32Z" fill="black"/>
        <path d="M56.7963 568.123L56.7963 560.975L42.5741 560.975L42.5741 568.123L56.7963 568.123Z" fill="black"/>
        <path d="M34.8704 578.843L34.8704 588.372L41.3889 588.372L41.3889 596.71L39.0186 596.71L39.0186 607.431L25.9815 607.431L25.9815 596.71L23.6111 596.71L23.6111 588.372L30.1297 588.372L30.1297 578.843L34.8704 578.843Z" fill="black"/>
        <path d="M36.6482 693.796L36.6482 640.195L28.3519 640.195L28.3519 693.796L26.5741 693.796L26.5741 708.093L38.426 708.093L38.426 693.796L36.6482 693.796Z" fill="black"/>
        <path d="M53.8333 765.271L53.8333 753.357L39.6111 753.357L39.6111 765.271L53.8333 765.271Z" fill="black"/>
        <path d="M25.3889 753.357L25.3889 765.271L11.1667 765.271L11.1667 753.357L25.3889 753.357Z" fill="black"/>
        <path d="M38.426 791.481L38.426 786.121L26.5741 786.121L26.5741 791.481L28.3519 791.481L28.3519 796.842L36.6482 796.842L36.6482 791.481L38.426 791.481Z" fill="black"/>
        <path d="M39.0186 810.54L39.0186 804.581L25.9815 804.581L25.9815 810.54L23.6111 810.54L23.6111 815.302L30.1297 815.302L30.1297 822.448L34.8704 822.448L34.8704 815.302L41.3889 815.302L41.3889 810.54L39.0186 810.54Z" fill="black"/>
        <path d="M39.0186 866.526L39.0186 876.055L25.9815 876.055L25.9815 866.526L23.6111 866.526L23.6111 861.764L30.1297 861.764L30.1297 854.612L34.8704 854.612L34.8704 861.764L41.3889 861.764L41.3889 866.526L39.0186 866.526Z" fill="black"/>
        <path d="M36.0556 890.946L36.0556 883.8L28.9445 883.8L28.9445 890.946L26.5741 890.946L26.5741 896.905L38.426 896.905L38.426 890.946L36.0556 890.946Z" fill="black"/>
        <path d="M38.426 944.553L38.426 933.831L26.5741 933.831L26.5741 944.553L28.3519 944.553L28.3519 957.658L36.6482 957.658L36.6482 944.553L38.426 944.553Z" fill="black"/>
        <path d="M38.426 983.863L38.426 970.758L26.5741 970.758L26.5741 983.863L23.6111 983.863L23.6111 994.584L30.1297 994.584L30.1297 1007.69L34.8704 1007.69L34.8704 994.584L41.3889 994.584L41.3889 983.863L38.426 983.863Z" fill="black"/>
        <path d="M56.2037 1021.98L56.2037 1033.89L42.5741 1033.89L42.5741 1021.98L56.2037 1021.98Z" fill="black"/>
        <path d="M22.426 1033.89L22.426 1021.98L8.79631 1021.98L8.79631 1033.89L22.426 1033.89Z" fill="black"/>
        <path d="M56.7963 829L56.7963 833.768L42.5741 833.768L42.5741 829L56.7963 829Z" fill="black"/>
        <path d="M56.7963 845.681L56.7963 839.722L42.5741 839.722L42.5741 845.681L56.7963 845.681Z" fill="black"/>
        <path d="M23.0186 839.722L23.0186 845.681L8.79629 845.681L8.79629 839.722L23.0186 839.722Z" fill="black"/>
        <path d="M23.0186 833.768L23.0186 829L8.79629 829L8.79629 833.768L23.0186 833.768Z" fill="black"/>
        <path d="M23.0186 560.975L23.0186 568.123L8.79629 568.123L8.79629 560.975L23.0186 560.975Z" fill="black"/>
        <path d="M22.426 295.33L22.426 307.243L8.20376 307.243L8.20376 295.33L22.426 295.33Z" fill="black"/>
        <path d="M47.3149 240.533L47.3149 236.959L33.0927 236.959L33.0927 240.533L47.3149 240.533Z" fill="black"/>
        <path d="M47.3149 246.49L47.3149 258.402L33.0927 258.402L33.0927 246.49L47.3149 246.49Z" fill="black"/>
        <path d="M31.9074 258.402L31.9074 246.49L17.6852 246.49L17.6852 258.402L31.9074 258.402Z" fill="black"/>
        <path d="M31.9074 236.959L31.9074 240.533L17.6852 240.533L17.6852 236.959L31.9074 236.959Z" fill="black"/>
        <path d="M23.0186 222.665L23.0186 220.282L8.79635 220.282L8.79635 222.665L23.0186 222.665Z" fill="black"/>
        <path d="M53.8334 157.743L39.6112 157.743L39.6112 162.507L50.2779 162.507L50.2779 173.229L39.6112 173.229L39.6112 175.611L53.8334 175.611L53.8334 172.038L63.9075 172.038L63.9075 163.699L53.8334 163.699L53.8334 157.743Z" fill="black"/>
        <path d="M24.7963 157.743L24.7963 162.507L14.1297 162.507L14.1297 173.229L24.7963 173.229L24.7963 175.611L10.5741 175.611L10.5741 172.038L0.500044 172.038L0.500045 163.699L10.5741 163.699L10.5741 157.743L24.7963 157.743Z" fill="black"/>
        <path d="M56.2038 98.1811L56.2038 87.4602L41.9815 87.4602L41.9815 98.1811L56.2038 98.1811Z" fill="black"/>
        <path d="M23.0186 87.4602L23.0186 98.1811L8.79635 98.1811L8.79635 87.4602L23.0186 87.4602Z" fill="black"/>
    </g>
    <defs>
        <clipPath id="clip0_6_58">
            <rect width="1033.39" height="64" fill="white" transform="translate(64.5001 0.5) rotate(90)"/>
        </clipPath>
    </defs>
</svg>
