<svg width="1760" height="109" viewBox="0 0 1760 109" fill="none" xmlns="http://www.w3.org/2000/svg">
    <g fill="black">
        <path d="M654.294 0H646.179V18.1667H638.063V42.3889H646.179V24.2222H654.294V0Z"/>
        <path d="M522.421 13.1204H502.133V37.3426H522.421V13.1204Z"/>
        <path d="M374.317 14.1296H378.375V38.3519H374.317V14.1296Z"/>
        <path d="M93.3256 39.3611H109.556V50.463H127.816V58.537H109.556V69.6389H93.3256V65.6019H73.0375V43.3981H93.3256V39.3611Z"/>
        <path d="M28.4035 47.4352H0V61.5648H28.4035V64.5926H36.5187V61.5648H54.7781V47.4352H36.5187V44.4074H28.4035V47.4352Z"/>
        <path d="M177.522 50.463H187.666V39.3611H195.781V43.3981H205.925V65.6019H195.781V69.6389H187.666V58.537H177.522V50.463Z"/>
        <path d="M225.199 47.4352H215.055V61.5648H225.199V64.5926H235.343V44.4074H225.199V47.4352Z"/>
        <path d="M322.582 44.4074H328.669V47.4352H336.784V61.5648H328.669V64.5926H322.582V44.4074Z"/>
        <path d="M345.914 44.4074H349.971V43.3981H354.029V39.3611H358.086V50.463H366.202V58.537H358.086V69.6389H354.029V65.6019H349.971V64.5926H345.914V44.4074Z"/>
        <path d="M393.591 51.4722H389.533V57.5278H393.591V51.4722Z"/>
        <path d="M460.542 51.4722H480.83V57.5278H460.542V51.4722Z"/>
        <path d="M540.68 50.463H552.853V39.3611H560.968V43.3981H571.112V65.6019H560.968V69.6389H552.853V58.537H540.68V50.463Z"/>
        <path d="M596.473 47.4352H584.3V61.5648H596.473V64.5926H604.588V44.4074H596.473V47.4352Z"/>
        <path d="M638.063 66.6111H646.179V84.7778H654.294V109H646.179V90.8333H638.063V66.6111Z"/>
        <path d="M805.441 1.00926H797.326V23.213H807.47V42.3889H811.527V18.1667H807.47V17.1574H805.441V1.00926Z"/>
        <path d="M797.326 84.7778H807.47V66.6111H811.527V90.8333H805.441V106.981H797.326V84.7778Z"/>
        <path d="M838.916 44.4074H845.003V47.4352H855.147V61.5648H845.003V64.5926H838.916V44.4074Z"/>
        <path d="M862.248 44.4074H870.363V39.3611H876.45V50.463H882.536V58.537H876.45V69.6389H870.363V64.5926H862.248V44.4074Z"/>
        <path d="M901.81 13.1204H893.695V37.3426H901.81V13.1204Z"/>
        <path d="M893.695 71.6574H901.81V95.8796H893.695V71.6574Z"/>
        <path d="M917.026 51.4722H910.939V57.5278H917.026V51.4722Z"/>
        <path d="M921.084 51.4722H935.285V57.5278H921.084V51.4722Z"/>
        <path d="M966.732 13.1204H954.559V37.3426H966.732V13.1204Z"/>
        <path d="M984.991 50.463H1001.22V39.3611H1015.42V43.3981H1033.68V65.6019H1015.42V69.6389H1001.22V58.537H984.991V50.463Z"/>
        <path d="M1180.77 47.4352H1089.48V61.5648H1180.77V64.5926H1205.12V44.4074H1180.77V47.4352Z"/>
        <path d="M1302.5 18.1667H1282.21V42.3889H1302.5V18.1667Z"/>
        <path d="M1282.21 66.6111H1302.5V90.8333H1282.21V66.6111Z"/>
        <path d="M1347.14 44.4074H1338.01V64.5926H1347.14V61.5648H1356.27V47.4352H1347.14V44.4074Z"/>
        <path d="M1379.6 43.3981H1369.45V65.6019H1379.6V69.6389H1387.71V58.537H1399.88V50.463H1387.71V39.3611H1379.6V43.3981Z"/>
        <path d="M1474.95 43.3981H1491.18V65.6019H1474.95V69.6389H1466.84V58.537H1454.66V50.463H1466.84V39.3611H1474.95V43.3981Z"/>
        <path d="M1516.54 48.4444H1504.37V60.5556H1516.54V64.5926H1526.69V44.4074H1516.54V48.4444Z"/>
        <path d="M1607.84 44.4074H1589.58V64.5926H1607.84V61.5648H1630.16V47.4352H1607.84V44.4074Z"/>
        <path d="M1674.79 44.4074H1652.47V64.5926H1674.79V69.6389H1693.05V58.537H1715.37V50.463H1693.05V39.3611H1674.79V44.4074Z"/>
        <path d="M1739.71 14.1296H1760V37.3426H1739.71V14.1296Z"/>
        <path d="M1760 71.6574H1739.71V94.8704H1760V71.6574Z"/>
        <path d="M1411.04 13.1204H1419.16V37.3426H1411.04V13.1204Z"/>
        <path d="M1439.45 13.1204H1429.3V37.3426H1439.45V13.1204Z"/>
        <path d="M1429.3 70.6481H1439.45V94.8704H1429.3V70.6481Z"/>
        <path d="M1419.16 70.6481H1411.04V94.8704H1419.16V70.6481Z"/>
        <path d="M954.559 70.6481H966.732V94.8704H954.559V70.6481Z"/>
        <path d="M502.133 71.6574H522.421V95.8796H502.133V71.6574Z"/>
        <path d="M408.807 29.2685H402.72V53.4907H408.807V29.2685Z"/>
        <path d="M418.951 29.2685H439.239V53.4907H418.951V29.2685Z"/>
        <path d="M439.239 55.5093H418.951V79.7315H439.239V55.5093Z"/>
        <path d="M402.72 55.5093H408.807V79.7315H402.72V55.5093Z"/>
        <path d="M378.375 70.6481H374.317V94.8704H378.375V70.6481Z"/>
        <path d="M267.804 18.1667V42.3889H275.919V24.2222H294.179V42.3889H298.236V18.1667H292.15V1.00926H277.948V18.1667H267.804Z"/>
        <path d="M267.804 67.6204H275.919V85.787H294.179V67.6204H298.236V91.8426H292.15V109H277.948V91.8426H267.804V67.6204Z"/>
        <path d="M166.363 14.1296H148.104V38.3519H166.363V14.1296Z"/>
        <path d="M148.104 70.6481H166.363V94.8704H148.104V70.6481Z"/>
    </g>
</svg>
