<svg width="128" height="170" viewBox="0 0 128 170" fill="none" xmlns="http://www.w3.org/2000/svg">
    <path d="M17.1707 0H7.80488V15.7407H17.1707V0Z" fill="black"/>
    <path d="M9.36585 56.6667H0V72.4074H9.36585V56.6667Z" fill="black"/>
    <path d="M15.6098 111.759H24.9756V127.5H15.6098V111.759Z" fill="black"/>
    <path d="M71.8049 70.8333V100.741H81.1707V113.333H71.8049V129.074H56.1951V113.333H46.8293V100.741H56.1951V70.8333H71.8049Z" fill="black"/>
    <path fill-rule="evenodd" clip-rule="evenodd" d="M40.5854 0H23.4146V15.7407H31.2195V28.3333H21.8537V56.6667H15.6098V99.1667H24.9756V69.2593H31.2195V28.3333H40.5854V72.4074H31.2195V129.074H46.8293V141.667H56.1951V157.407H48.3902V170H56.1951V157.407H71.8049V170H79.6098V157.407H71.8049V141.667H81.1707V129.074H96.7805V72.4074H87.4146V28.3333H96.7805V69.2593H103.024V99.1667H112.39V56.6667H106.146V28.3333H96.7805V15.7407H104.585V0H87.4146V28.3333H79.6098V0H70.2439V15.7407H57.7561V0H48.3902V28.3333H40.5854V0ZM56.1951 28.3333V56.6667H46.8293V100.741H40.5854V113.333H46.8293V129.074H56.1951V141.667H71.8049V129.074H81.1707V113.333H87.4146V100.741H81.1707V56.6667H71.8049V28.3333H56.1951Z" fill="black"/>
    <path d="M110.829 0H120.195V15.7407H110.829V0Z" fill="black"/>
    <path d="M118.634 56.6667H128V72.4074H118.634V56.6667Z" fill="black"/>
    <path d="M112.39 111.759H103.024V127.5H112.39V111.759Z" fill="black"/>
</svg>
