<svg width="44" height="27" viewBox="0 0 44 27" fill="none" xmlns="http://www.w3.org/2000/svg">
    <path d="M32.4016 0.608078C26.3594 0.608078 21.469 5.17514 21.469 10.8132C21.469 16.4513 26.3594 21.0184 32.4016 21.0184C38.4439 21.0184 43.3343 16.4513 43.3343 10.8132C43.3343 5.17514 38.4439 0.608078 32.4016 0.608078ZM32.4016 15.2186C28.6025 15.2186 25.5309 13.2786 25.5309 10.8941C25.5309 8.50949 28.6025 6.56951 32.4016 6.56951C36.2008 6.56951 39.2724 8.50949 39.2724 10.8941C39.2724 13.2786 36.2008 15.2186 32.4016 15.2186ZM17.0232 0.6687L11.9307 13.3392L6.61599 0.608078H0.209961L6.31284 15.0569L11.2437 15.0771L8.8591 21.0184H1.96809V27H11.8095V26.9798H12.9007L23.3686 0.608078L17.0232 0.6687Z" fill="#1D1D1B"/>
</svg>
