<svg width="49" height="28" viewBox="0 0 49 28" fill="none" xmlns="http://www.w3.org/2000/svg">
    <path d="M22.1886 6.30495H16.2474V9.1341C14.5297 7.59828 12.3068 6.62829 9.84138 6.62829C4.40538 6.62829 0 11.1953 0 16.8334C0 22.4715 4.40538 27.0386 9.84138 27.0386C12.3068 27.0386 14.5095 26.0686 16.2474 24.5328V27.2002H26.109V21.2186H22.1886V6.30495ZM16.2676 19.804C16.2676 19.804 14.2064 21.0974 11.6197 21.2186C7.31537 21.4005 4.2437 19.3595 4.2437 16.9749C4.2437 14.5903 6.99204 12.6099 11.6197 12.5695C14.2872 12.5493 16.2676 14.1457 16.2676 14.1457V19.804ZM42.3564 9.1139C40.6387 7.57808 38.4158 6.60808 35.9504 6.60808C30.5144 6.60808 26.109 11.1751 26.109 16.8132C26.109 22.4513 30.5144 27.0184 35.9504 27.0184C38.4158 27.0184 40.6185 26.0484 42.3564 24.5126V27.18H48.2976V0H42.3564V9.1139ZM42.3564 19.804C42.3564 19.804 40.2952 21.0974 37.7085 21.2186C33.4042 21.4005 30.3325 19.3595 30.3325 16.9749C30.3325 14.5903 33.0808 12.6099 37.7085 12.5695C40.376 12.5493 42.3564 14.1457 42.3564 14.1457V19.804Z" fill="#1D1D1B"/>
</svg>
