<svg width="1703" height="836" viewBox="0 0 1703 836" fill="none" xmlns="http://www.w3.org/2000/svg">
    <g clip-path="url(#clip0_79_426)">
        <path d="M97.2137 68.7434C97.2137 74.1728 93.0414 78.4868 87.9994 78.4868C82.9575 78.4868 78.7852 74.1728 78.7852 68.7434C78.7852 63.3141 82.9575 59 87.9994 59C93.0414 59 97.2137 63.3141 97.2137 68.7434Z" stroke="black" stroke-width="2"/>
        <path d="M49.9277 129L59.2134 132.737L74.9992 94.4339H82.4277V133.671H92.642V94.4339H100.071L116.785 132.737L126.071 129L106.571 85.0918H69.4277L49.9277 129Z" stroke="black" stroke-width="2"/>
        <rect x="73.1426" y="133.671" width="9.28571" height="65.3947" stroke="black" stroke-width="2"/>
        <path d="M92.6426 133.671H101.928V199.066H92.6426V133.671Z" stroke="black" stroke-width="2"/>
        <path d="M313.214 68.7434C313.214 74.1728 309.041 78.4868 303.999 78.4868C298.958 78.4868 294.785 74.1728 294.785 68.7434C294.785 63.3141 298.958 59 303.999 59C309.041 59 313.214 63.3141 313.214 68.7434Z" stroke="black" stroke-width="2"/>
        <path d="M265.928 129L275.213 132.737L290.999 94.4339H298.428V133.671H308.642V94.4339H316.071L332.785 132.737L342.071 129L322.571 85.0918H285.428L265.928 129Z" stroke="black" stroke-width="2"/>
        <rect x="289.143" y="133.671" width="9.28571" height="65.3947" stroke="black" stroke-width="2"/>
        <path d="M308.643 133.671H317.928V199.066H308.643V133.671Z" stroke="black" stroke-width="2"/>
        <path d="M204.214 192.743C204.214 198.173 200.041 202.487 194.999 202.487C189.958 202.487 185.785 198.173 185.785 192.743C185.785 187.314 189.958 183 194.999 183C200.041 183 204.214 187.314 204.214 192.743Z" stroke="black" stroke-width="2"/>
        <path d="M156.928 253L166.213 256.737L181.999 218.434H189.428V257.671H199.642V218.434H207.071L223.785 256.737L233.071 253L213.571 209.092H176.428L156.928 253Z" stroke="black" stroke-width="2"/>
        <rect x="180.143" y="257.671" width="9.28571" height="65.3947" stroke="black" stroke-width="2"/>
        <path d="M199.643 257.671H208.928V323.066H199.643V257.671Z" stroke="black" stroke-width="2"/>
        <path d="M204.214 423.743C204.214 429.173 200.041 433.487 194.999 433.487C189.958 433.487 185.785 429.173 185.785 423.743C185.785 418.314 189.958 414 194.999 414C200.041 414 204.214 418.314 204.214 423.743Z" stroke="black" stroke-width="2"/>
        <path d="M156.928 484L166.213 487.737L181.999 449.434H189.428V488.671H199.642V449.434H207.071L223.785 487.737L233.071 484L213.571 440.092H176.428L156.928 484Z" stroke="black" stroke-width="2"/>
        <rect x="180.143" y="488.671" width="9.28571" height="65.3947" stroke="black" stroke-width="2"/>
        <path d="M199.643 488.671H208.928V554.066H199.643V488.671Z" stroke="black" stroke-width="2"/>
        <path d="M97.2137 302.743C97.2137 308.173 93.0414 312.487 87.9994 312.487C82.9575 312.487 78.7852 308.173 78.7852 302.743C78.7852 297.314 82.9575 293 87.9994 293C93.0414 293 97.2137 297.314 97.2137 302.743Z" stroke="black" stroke-width="2"/>
        <path d="M49.9277 363L59.2134 366.737L74.9992 328.434H82.4277V367.671H92.642V328.434H100.071L116.785 366.737L126.071 363L106.571 319.092H69.4277L49.9277 363Z" stroke="black" stroke-width="2"/>
        <rect x="73.1426" y="367.671" width="9.28571" height="65.3947" stroke="black" stroke-width="2"/>
        <path d="M92.6426 367.671H101.928V433.066H92.6426V367.671Z" stroke="black" stroke-width="2"/>
        <path d="M97.2137 534.743C97.2137 540.173 93.0414 544.487 87.9994 544.487C82.9575 544.487 78.7852 540.173 78.7852 534.743C78.7852 529.314 82.9575 525 87.9994 525C93.0414 525 97.2137 529.314 97.2137 534.743Z" stroke="black" stroke-width="2"/>
        <path d="M49.9277 595L59.2134 598.737L74.9992 560.434H82.4277V599.671H92.642V560.434H100.071L116.785 598.737L126.071 595L106.571 551.092H69.4277L49.9277 595Z" stroke="black" stroke-width="2"/>
        <rect x="73.1426" y="599.671" width="9.28571" height="65.3947" stroke="black" stroke-width="2"/>
        <path d="M92.6426 599.671H101.928V665.066H92.6426V599.671Z" stroke="black" stroke-width="2"/>
        <path d="M313.214 302.743C313.214 308.173 309.041 312.487 303.999 312.487C298.958 312.487 294.785 308.173 294.785 302.743C294.785 297.314 298.958 293 303.999 293C309.041 293 313.214 297.314 313.214 302.743Z" stroke="black" stroke-width="2"/>
        <path d="M265.928 363L275.213 366.737L290.999 328.434H298.428V367.671H308.642V328.434H316.071L332.785 366.737L342.071 363L322.571 319.092H285.428L265.928 363Z" stroke="black" stroke-width="2"/>
        <rect x="289.143" y="367.671" width="9.28571" height="65.3947" stroke="black" stroke-width="2"/>
        <path d="M308.643 367.671H317.928V433.066H308.643V367.671Z" stroke="black" stroke-width="2"/>
        <path d="M313.214 534.743C313.214 540.173 309.041 544.487 303.999 544.487C298.958 544.487 294.785 540.173 294.785 534.743C294.785 529.314 298.958 525 303.999 525C309.041 525 313.214 529.314 313.214 534.743Z" stroke="black" stroke-width="2"/>
        <path d="M265.928 595L275.213 598.737L290.999 560.434H298.428V599.671H308.642V560.434H316.071L332.785 598.737L342.071 595L322.571 551.092H285.428L265.928 595Z" stroke="black" stroke-width="2"/>
        <rect x="289.143" y="599.671" width="9.28571" height="65.3947" stroke="black" stroke-width="2"/>
        <path d="M308.643 599.671H317.928V665.066H308.643V599.671Z" stroke="black" stroke-width="2"/>
        <g clip-path="url(#clip1_79_426)">
            <ellipse cx="850" cy="143.664" rx="23.5714" ry="24.6645" fill="black"/>
            <path d="M762.143 282L783.571 290.579L820 202.645H837.143V292.724H860.714V202.645H877.857L916.428 290.579L937.857 282L892.857 181.197H807.143L762.143 282Z" fill="black"/>
        </g>
        <rect x="775" y="88" width="150" height="150" stroke="black" stroke-width="2"/>
        <g clip-path="url(#clip2_79_426)">
            <ellipse cx="850" cy="347.664" rx="23.5714" ry="24.6645" fill="black"/>
            <path d="M762.143 486L783.571 494.579L820 406.645H837.143V496.724H860.714V406.645H877.857L916.428 494.579L937.857 486L892.857 385.197H807.143L762.143 486Z" fill="black"/>
        </g>
        <rect x="775" y="292" width="150" height="150" stroke="black" stroke-width="2"/>
        <g clip-path="url(#clip3_79_426)">
            <ellipse cx="850" cy="563.664" rx="23.5714" ry="24.6645" fill="black"/>
            <path d="M762.143 702L783.571 710.579L820 622.645H837.143V712.724H860.714V622.645H877.857L916.428 710.579L937.857 702L892.857 601.197H807.143L762.143 702Z" fill="black"/>
        </g>
        <rect x="775" y="508" width="150" height="150" stroke="black" stroke-width="2"/>
        <rect x="1448" y="201" width="78" height="78" fill="black"/>
        <path d="M1564.5 162H1487.5L1449 201V202M1564.5 162L1525 201.5L1523.5 202.5V278H1525L1564.5 239.5V162Z" stroke="black" stroke-width="2"/>
        <path d="M1504 324V279" stroke="black" stroke-width="2"/>
        <path d="M1504 467V422" stroke="black" stroke-width="2"/>
        <rect x="1448" y="344" width="78" height="78" fill="black"/>
        <path d="M1564.5 305H1487.5L1449 344V345M1564.5 305L1525 344.5L1523.5 345.5V421H1525L1564.5 382.5V305Z" stroke="black" stroke-width="2"/>
        <rect x="1448" y="487" width="78" height="78" fill="black"/>
        <path d="M1564.5 448H1487.5L1449 487V488M1564.5 448L1525 487.5L1523.5 488.5V564H1525L1564.5 525.5V448Z" stroke="black" stroke-width="2"/>
        <rect width="397" height="739" stroke="black" stroke-width="2"/>
        <rect x="653" width="397" height="739" stroke="black" stroke-width="2"/>
        <rect x="1306" width="397" height="739" stroke="black" stroke-width="2"/>
        <path d="M358.5 162H770.5M770.5 162L760.5 152M770.5 162L760.5 172" stroke="black" stroke-width="2"/>
        <path d="M926 367H1427M1427 367L1417 357M1427 367L1417 377" stroke="black" stroke-width="2"/>
        <path d="M256.5 256.5L524.686 256.95C541.182 256.978 554.561 270.318 554.636 286.814L554.864 337.136C554.939 353.652 568.349 367 584.864 367H770.5M770.5 367L760.5 357M770.5 367L760.5 377" stroke="black" stroke-width="2"/>
        <path d="M770.5 366.5L499.333 366.95C482.83 366.978 469.448 380.329 469.383 396.832L469.118 464.118C469.053 480.64 455.64 494 439.118 494H256.5M770.5 366.5L761 357M770.5 366.5L761 376" stroke="black" stroke-width="2"/>
        <path d="M527 836V608" stroke="black" stroke-width="2"/>
        <path d="M1179 836V402" stroke="black" stroke-width="2"/>
        <path d="M358.5 367H770.5M770.5 367L760.5 357M770.5 367L760.5 377" stroke="black" stroke-width="2"/>
        <path d="M358.5 579H770.5M770.5 579L760.5 569M770.5 579L760.5 589" stroke="black" stroke-width="2"/>
    </g>
    <defs>
        <clipPath id="clip0_79_426">
            <rect width="1703" height="836" fill="white"/>
        </clipPath>
        <clipPath id="clip1_79_426">
            <rect x="774" y="87" width="152" height="152" fill="white"/>
        </clipPath>
        <clipPath id="clip2_79_426">
            <rect x="774" y="291" width="152" height="152" fill="white"/>
        </clipPath>
        <clipPath id="clip3_79_426">
            <rect x="774" y="507" width="152" height="152" fill="white"/>
        </clipPath>
    </defs>
</svg>
