<svg width="325" height="822" viewBox="0 0 325 822" fill="none" xmlns="http://www.w3.org/2000/svg">
    <path d="M47 238.5H46.5V239V359V359.5H47H145H145.5V359V239V238.5H145H47Z" fill="black" stroke="black"/>
    <path fill-rule="evenodd" clip-rule="evenodd" d="M47 239H132V266H47V239Z" fill="#FEFFFF" stroke="black" stroke-width="2"/>
    <path fill-rule="evenodd" clip-rule="evenodd" d="M47 267H132V294H47V267Z" fill="#FEFFFF" stroke="black" stroke-width="2"/>
    <path fill-rule="evenodd" clip-rule="evenodd" d="M47 295H132V323H47V295Z" fill="#FEFFFF" stroke="black" stroke-width="2"/>
    <path d="M58.946 337.152C58.428 337.152 58.036 336.774 58.036 336.284C58.036 335.794 58.428 335.402 58.946 335.402C59.464 335.402 59.856 335.78 59.856 336.256C59.856 336.76 59.478 337.152 58.946 337.152ZM58.274 346V338.58H59.618V346H58.274ZM66.1462 338.51C67.9522 338.51 69.2262 339.546 69.2262 341.73V346H67.8822V341.884C67.8822 340.428 67.1542 339.714 65.8802 339.714C64.4522 339.714 63.5282 340.568 63.5282 342.178V346H62.1842V338.58H63.4722V339.7C64.0182 338.944 64.9702 338.51 66.1462 338.51ZM80.7232 338.58H82.0392L78.7912 346H77.4192L74.1712 338.58H75.5712L78.1192 344.53L80.7232 338.58ZM85.7631 338.51C87.7931 338.51 88.9411 339.49 88.9411 341.52V346H87.6671V345.02C87.2191 345.692 86.3931 346.084 85.2311 346.084C83.5511 346.084 82.4871 345.188 82.4871 343.9C82.4871 342.71 83.2571 341.73 85.4691 341.73H87.5971V341.464C87.5971 340.33 86.9391 339.672 85.6091 339.672C84.7271 339.672 83.8311 339.98 83.2571 340.47L82.6971 339.462C83.4671 338.846 84.5731 338.51 85.7631 338.51ZM85.4551 345.048C86.4631 345.048 87.2611 344.586 87.5971 343.732V342.696H85.5251C84.1951 342.696 83.8171 343.214 83.8171 343.844C83.8171 344.586 84.4331 345.048 85.4551 345.048ZM91.4283 346V335.612H92.7723V346H91.4283ZM96.0105 337.152C95.4925 337.152 95.1005 336.774 95.1005 336.284C95.1005 335.794 95.4925 335.402 96.0105 335.402C96.5285 335.402 96.9205 335.78 96.9205 336.256C96.9205 336.76 96.5425 337.152 96.0105 337.152ZM95.3385 346V338.58H96.6825V346H95.3385ZM104.905 335.612H106.249V346H104.961V344.824C104.359 345.664 103.407 346.084 102.315 346.084C100.145 346.084 98.5626 344.558 98.5626 342.29C98.5626 340.022 100.145 338.51 102.315 338.51C103.365 338.51 104.289 338.902 104.905 339.7V335.612ZM102.427 344.908C103.841 344.908 104.919 343.872 104.919 342.29C104.919 340.708 103.841 339.686 102.427 339.686C100.999 339.686 99.9206 340.708 99.9206 342.29C99.9206 343.872 100.999 344.908 102.427 344.908ZM111.494 338.51C113.524 338.51 114.672 339.49 114.672 341.52V346H113.398V345.02C112.95 345.692 112.124 346.084 110.962 346.084C109.282 346.084 108.218 345.188 108.218 343.9C108.218 342.71 108.988 341.73 111.2 341.73H113.328V341.464C113.328 340.33 112.67 339.672 111.34 339.672C110.458 339.672 109.562 339.98 108.988 340.47L108.428 339.462C109.198 338.846 110.304 338.51 111.494 338.51ZM111.186 345.048C112.194 345.048 112.992 344.586 113.328 343.732V342.696H111.256C109.926 342.696 109.548 343.214 109.548 343.844C109.548 344.586 110.164 345.048 111.186 345.048ZM120.911 344.6L121.331 345.566C120.925 345.916 120.309 346.084 119.707 346.084C118.209 346.084 117.355 345.258 117.355 343.76V339.686H116.095V338.58H117.355V336.956H118.699V338.58H120.827V339.686H118.699V343.704C118.699 344.502 119.119 344.95 119.861 344.95C120.253 344.95 120.631 344.824 120.911 344.6ZM125.888 346.084C123.662 346.084 122.024 344.502 122.024 342.29C122.024 340.078 123.662 338.51 125.888 338.51C128.114 338.51 129.738 340.078 129.738 342.29C129.738 344.502 128.114 346.084 125.888 346.084ZM125.888 344.908C127.316 344.908 128.38 343.872 128.38 342.29C128.38 340.708 127.316 339.686 125.888 339.686C124.46 339.686 123.382 340.708 123.382 342.29C123.382 343.872 124.46 344.908 125.888 344.908ZM132.884 339.826C133.36 338.958 134.284 338.51 135.586 338.51V339.812C135.474 339.798 135.376 339.798 135.278 339.798C133.836 339.798 132.94 340.68 132.94 342.304V346H131.596V338.58H132.884V339.826Z" fill="white"/>
    <path d="M65.498 250.2H66.898V260H65.498V255.632H59.87V260H58.47V250.2H59.87V254.414H65.498V250.2ZM72.3373 252.51C74.3673 252.51 75.5153 253.49 75.5153 255.52V260H74.2413V259.02C73.7933 259.692 72.9673 260.084 71.8053 260.084C70.1253 260.084 69.0613 259.188 69.0613 257.9C69.0613 256.71 69.8313 255.73 72.0433 255.73H74.1713V255.464C74.1713 254.33 73.5133 253.672 72.1833 253.672C71.3013 253.672 70.4053 253.98 69.8313 254.47L69.2713 253.462C70.0413 252.846 71.1473 252.51 72.3373 252.51ZM72.0293 259.048C73.0373 259.048 73.8353 258.586 74.1713 257.732V256.696H72.0993C70.7693 256.696 70.3913 257.214 70.3913 257.844C70.3913 258.586 71.0073 259.048 72.0293 259.048ZM80.1305 260.084C78.8985 260.084 77.6805 259.706 77.0645 259.216L77.6245 258.152C78.2545 258.6 79.2625 258.922 80.2285 258.922C81.4745 258.922 81.9925 258.544 81.9925 257.914C81.9925 256.248 77.3025 257.69 77.3025 254.736C77.3025 253.406 78.4925 252.51 80.3965 252.51C81.3625 252.51 82.4545 252.762 83.0985 253.182L82.5245 254.246C81.8525 253.812 81.1105 253.658 80.3825 253.658C79.2065 253.658 78.6325 254.092 78.6325 254.68C78.6325 256.43 83.3365 255.002 83.3365 257.886C83.3365 259.23 82.1045 260.084 80.1305 260.084ZM88.9782 252.51C90.7842 252.51 92.0582 253.546 92.0582 255.73V260H90.7142V255.884C90.7142 254.428 89.9862 253.714 88.7122 253.714C87.2842 253.714 86.3602 254.568 86.3602 256.178V260H85.0162V249.612H86.3602V253.63C86.9202 252.916 87.8442 252.51 88.9782 252.51ZM97.1433 250.2H100.741V260H99.3553V251.418H97.1433V250.2Z" fill="black"/>
    <path d="M65.498 276.2H66.898V286H65.498V281.632H59.87V286H58.47V276.2H59.87V280.414H65.498V276.2ZM72.3373 278.51C74.3673 278.51 75.5153 279.49 75.5153 281.52V286H74.2413V285.02C73.7933 285.692 72.9673 286.084 71.8053 286.084C70.1253 286.084 69.0613 285.188 69.0613 283.9C69.0613 282.71 69.8313 281.73 72.0433 281.73H74.1713V281.464C74.1713 280.33 73.5133 279.672 72.1833 279.672C71.3013 279.672 70.4053 279.98 69.8313 280.47L69.2713 279.462C70.0413 278.846 71.1473 278.51 72.3373 278.51ZM72.0293 285.048C73.0373 285.048 73.8353 284.586 74.1713 283.732V282.696H72.0993C70.7693 282.696 70.3913 283.214 70.3913 283.844C70.3913 284.586 71.0073 285.048 72.0293 285.048ZM80.1305 286.084C78.8985 286.084 77.6805 285.706 77.0645 285.216L77.6245 284.152C78.2545 284.6 79.2625 284.922 80.2285 284.922C81.4745 284.922 81.9925 284.544 81.9925 283.914C81.9925 282.248 77.3025 283.69 77.3025 280.736C77.3025 279.406 78.4925 278.51 80.3965 278.51C81.3625 278.51 82.4545 278.762 83.0985 279.182L82.5245 280.246C81.8525 279.812 81.1105 279.658 80.3825 279.658C79.2065 279.658 78.6325 280.092 78.6325 280.68C78.6325 282.43 83.3365 281.002 83.3365 283.886C83.3365 285.23 82.1045 286.084 80.1305 286.084ZM88.9782 278.51C90.7842 278.51 92.0582 279.546 92.0582 281.73V286H90.7142V281.884C90.7142 280.428 89.9862 279.714 88.7122 279.714C87.2842 279.714 86.3602 280.568 86.3602 282.178V286H85.0162V275.612H86.3602V279.63C86.9202 278.916 87.8442 278.51 88.9782 278.51ZM99.5653 284.782H104.591V286H97.5493V285.048L101.539 281.198C102.575 280.19 102.771 279.574 102.771 278.958C102.771 277.95 102.057 277.334 100.685 277.334C99.6353 277.334 98.7812 277.67 98.1793 278.398L97.2273 277.572C97.9833 276.634 99.2853 276.088 100.811 276.088C102.855 276.088 104.171 277.138 104.171 278.818C104.171 279.77 103.891 280.624 102.561 281.898L99.5653 284.782Z" fill="black"/>
    <path d="M65.498 303.2H66.898V313H65.498V308.632H59.87V313H58.47V303.2H59.87V307.414H65.498V303.2ZM72.3373 305.51C74.3673 305.51 75.5153 306.49 75.5153 308.52V313H74.2413V312.02C73.7933 312.692 72.9673 313.084 71.8053 313.084C70.1253 313.084 69.0613 312.188 69.0613 310.9C69.0613 309.71 69.8313 308.73 72.0433 308.73H74.1713V308.464C74.1713 307.33 73.5133 306.672 72.1833 306.672C71.3013 306.672 70.4053 306.98 69.8313 307.47L69.2713 306.462C70.0413 305.846 71.1473 305.51 72.3373 305.51ZM72.0293 312.048C73.0373 312.048 73.8353 311.586 74.1713 310.732V309.696H72.0993C70.7693 309.696 70.3913 310.214 70.3913 310.844C70.3913 311.586 71.0073 312.048 72.0293 312.048ZM80.1305 313.084C78.8985 313.084 77.6805 312.706 77.0645 312.216L77.6245 311.152C78.2545 311.6 79.2625 311.922 80.2285 311.922C81.4745 311.922 81.9925 311.544 81.9925 310.914C81.9925 309.248 77.3025 310.69 77.3025 307.736C77.3025 306.406 78.4925 305.51 80.3965 305.51C81.3625 305.51 82.4545 305.762 83.0985 306.182L82.5245 307.246C81.8525 306.812 81.1105 306.658 80.3825 306.658C79.2065 306.658 78.6325 307.092 78.6325 307.68C78.6325 309.43 83.3365 308.002 83.3365 310.886C83.3365 312.23 82.1045 313.084 80.1305 313.084ZM88.9782 305.51C90.7842 305.51 92.0582 306.546 92.0582 308.73V313H90.7142V308.884C90.7142 307.428 89.9862 306.714 88.7122 306.714C87.2842 306.714 86.3602 307.568 86.3602 309.178V313H85.0162V302.612H86.3602V306.63C86.9202 305.916 87.8442 305.51 88.9782 305.51ZM105.529 303.2H106.929V313H105.781L99.9013 305.692V313H98.5013V303.2H99.6493L105.529 310.508V303.2Z" fill="black"/>
    <path fill-rule="evenodd" clip-rule="evenodd" d="M169 264H284V323H169V264Z" fill="black" stroke="black" stroke-width="2"/>
    <path d="M184.852 290.112C181.884 290.112 179.672 287.998 179.672 285.1C179.672 282.202 181.884 280.088 184.866 280.088C186.378 280.088 187.694 280.606 188.59 281.614L187.68 282.496C186.924 281.698 186 281.334 184.922 281.334C182.71 281.334 181.072 282.93 181.072 285.1C181.072 287.27 182.71 288.866 184.922 288.866C186 288.866 186.924 288.488 187.68 287.69L188.59 288.572C187.694 289.58 186.378 290.112 184.852 290.112ZM194.353 282.51C196.159 282.51 197.433 283.546 197.433 285.73V290H196.089V285.884C196.089 284.428 195.361 283.714 194.087 283.714C192.659 283.714 191.735 284.568 191.735 286.178V290H190.391V279.612H191.735V283.63C192.295 282.916 193.219 282.51 194.353 282.51ZM206.668 286.332C206.668 286.444 206.654 286.612 206.64 286.738H200.62C200.788 288.04 201.838 288.908 203.308 288.908C204.176 288.908 204.904 288.614 205.45 288.012L206.192 288.88C205.52 289.664 204.498 290.084 203.266 290.084C200.872 290.084 199.276 288.502 199.276 286.29C199.276 284.092 200.858 282.51 203 282.51C205.142 282.51 206.668 284.05 206.668 286.332ZM203 283.644C201.712 283.644 200.76 284.512 200.62 285.772H205.38C205.24 284.526 204.302 283.644 203 283.644ZM211.768 290.084C209.486 290.084 207.848 288.502 207.848 286.29C207.848 284.078 209.486 282.51 211.768 282.51C213.098 282.51 214.204 283.056 214.792 284.092L213.77 284.75C213.294 284.022 212.566 283.686 211.754 283.686C210.298 283.686 209.206 284.708 209.206 286.29C209.206 287.9 210.298 288.908 211.754 288.908C212.566 288.908 213.294 288.572 213.77 287.844L214.792 288.488C214.204 289.524 213.098 290.084 211.768 290.084ZM222.106 290L219.32 286.542L217.78 287.97V290H216.436V279.612H217.78V286.276L221.826 282.58H223.45L220.328 285.646L223.758 290H222.106ZM226.959 290.084C225.727 290.084 224.509 289.706 223.893 289.216L224.453 288.152C225.083 288.6 226.091 288.922 227.057 288.922C228.303 288.922 228.821 288.544 228.821 287.914C228.821 286.248 224.131 287.69 224.131 284.736C224.131 283.406 225.321 282.51 227.225 282.51C228.191 282.51 229.283 282.762 229.927 283.182L229.353 284.246C228.681 283.812 227.939 283.658 227.211 283.658C226.035 283.658 225.461 284.092 225.461 284.68C225.461 286.43 230.165 285.002 230.165 287.886C230.165 289.23 228.933 290.084 226.959 290.084ZM237.416 282.58H238.76V290H237.486V288.88C236.94 289.65 236.016 290.084 234.966 290.084C233.048 290.084 231.774 289.034 231.774 286.85V282.58H233.118V286.696C233.118 288.152 233.846 288.88 235.12 288.88C236.52 288.88 237.416 288.012 237.416 286.416V282.58ZM250.601 282.51C252.407 282.51 253.639 283.546 253.639 285.73V290H252.295V285.884C252.295 284.428 251.595 283.714 250.377 283.714C249.033 283.714 248.151 284.568 248.151 286.178V290H246.807V285.884C246.807 284.428 246.107 283.714 244.889 283.714C243.545 283.714 242.663 284.568 242.663 286.178V290H241.319V282.58H242.607V283.686C243.139 282.93 244.049 282.51 245.169 282.51C246.303 282.51 247.255 282.958 247.745 283.882C248.305 283.042 249.341 282.51 250.601 282.51ZM180.946 298.152C180.428 298.152 180.036 297.774 180.036 297.284C180.036 296.794 180.428 296.402 180.946 296.402C181.464 296.402 181.856 296.78 181.856 297.256C181.856 297.76 181.478 298.152 180.946 298.152ZM180.274 307V299.58H181.618V307H180.274ZM188.146 299.51C189.952 299.51 191.226 300.546 191.226 302.73V307H189.882V302.884C189.882 301.428 189.154 300.714 187.88 300.714C186.452 300.714 185.528 301.568 185.528 303.178V307H184.184V299.58H185.472V300.7C186.018 299.944 186.97 299.51 188.146 299.51ZM201.407 299.51C203.577 299.51 205.159 301.022 205.159 303.29C205.159 305.558 203.577 307.084 201.407 307.084C200.315 307.084 199.363 306.664 198.761 305.824V307H197.473V296.612H198.817V300.7C199.433 299.902 200.357 299.51 201.407 299.51ZM201.295 305.908C202.723 305.908 203.801 304.872 203.801 303.29C203.801 301.708 202.723 300.686 201.295 300.686C199.881 300.686 198.803 301.708 198.803 303.29C198.803 304.872 199.881 305.908 201.295 305.908ZM207.016 307V296.612H208.36V307H207.016ZM214.104 307.084C211.878 307.084 210.24 305.502 210.24 303.29C210.24 301.078 211.878 299.51 214.104 299.51C216.33 299.51 217.954 301.078 217.954 303.29C217.954 305.502 216.33 307.084 214.104 307.084ZM214.104 305.908C215.532 305.908 216.596 304.872 216.596 303.29C216.596 301.708 215.532 300.686 214.104 300.686C212.676 300.686 211.598 301.708 211.598 303.29C211.598 304.872 212.676 305.908 214.104 305.908ZM223.047 307.084C220.765 307.084 219.127 305.502 219.127 303.29C219.127 301.078 220.765 299.51 223.047 299.51C224.377 299.51 225.483 300.056 226.071 301.092L225.049 301.75C224.573 301.022 223.845 300.686 223.033 300.686C221.577 300.686 220.485 301.708 220.485 303.29C220.485 304.9 221.577 305.908 223.033 305.908C223.845 305.908 224.573 305.572 225.049 304.844L226.071 305.488C225.483 306.524 224.377 307.084 223.047 307.084ZM233.385 307L230.599 303.542L229.059 304.97V307H227.715V296.612H229.059V303.276L233.105 299.58H234.729L231.607 302.646L235.037 307H233.385ZM239.262 307.084C236.98 307.084 235.342 305.502 235.342 303.29C235.342 301.078 236.98 299.51 239.262 299.51C240.592 299.51 241.698 300.056 242.286 301.092L241.264 301.75C240.788 301.022 240.06 300.686 239.248 300.686C237.792 300.686 236.7 301.708 236.7 303.29C236.7 304.9 237.792 305.908 239.248 305.908C240.06 305.908 240.788 305.572 241.264 304.844L242.286 305.488C241.698 306.524 240.592 307.084 239.262 307.084ZM247.892 299.51C249.698 299.51 250.972 300.546 250.972 302.73V307H249.628V302.884C249.628 301.428 248.9 300.714 247.626 300.714C246.198 300.714 245.274 301.568 245.274 303.178V307H243.93V296.612H245.274V300.63C245.834 299.916 246.758 299.51 247.892 299.51ZM256.162 299.51C258.192 299.51 259.34 300.49 259.34 302.52V307H258.066V306.02C257.618 306.692 256.792 307.084 255.63 307.084C253.95 307.084 252.886 306.188 252.886 304.9C252.886 303.71 253.656 302.73 255.868 302.73H257.996V302.464C257.996 301.33 257.338 300.672 256.008 300.672C255.126 300.672 254.23 300.98 253.656 301.47L253.096 300.462C253.866 299.846 254.972 299.51 256.162 299.51ZM255.854 306.048C256.862 306.048 257.66 305.586 257.996 304.732V303.696H255.924C254.594 303.696 254.216 304.214 254.216 304.844C254.216 305.586 254.832 306.048 255.854 306.048ZM262.499 298.152C261.981 298.152 261.589 297.774 261.589 297.284C261.589 296.794 261.981 296.402 262.499 296.402C263.017 296.402 263.409 296.78 263.409 297.256C263.409 297.76 263.031 298.152 262.499 298.152ZM261.827 307V299.58H263.171V307H261.827ZM269.699 299.51C271.505 299.51 272.779 300.546 272.779 302.73V307H271.435V302.884C271.435 301.428 270.707 300.714 269.433 300.714C268.005 300.714 267.081 301.568 267.081 303.178V307H265.737V299.58H267.025V300.7C267.571 299.944 268.523 299.51 269.699 299.51Z" fill="white"/>
    <path fill-rule="evenodd" clip-rule="evenodd" d="M106 414H208V490H106V414Z" fill="black" stroke="black" stroke-width="2"/>
    <path d="M124.792 440L123.714 437.55H118.506L117.428 440H115.986L120.424 430.2H121.81L126.262 440H124.792ZM118.996 436.43H123.224L121.11 431.628L118.996 436.43ZM133.116 429.612H134.46V440H133.172V438.824C132.57 439.664 131.618 440.084 130.526 440.084C128.356 440.084 126.774 438.558 126.774 436.29C126.774 434.022 128.356 432.51 130.526 432.51C131.576 432.51 132.5 432.902 133.116 433.7V429.612ZM130.638 438.908C132.052 438.908 133.13 437.872 133.13 436.29C133.13 434.708 132.052 433.686 130.638 433.686C129.21 433.686 128.132 434.708 128.132 436.29C128.132 437.872 129.21 438.908 130.638 438.908ZM142.253 432.58H143.569L140.321 440H138.949L135.701 432.58H137.101L139.649 438.53L142.253 432.58ZM151.324 436.332C151.324 436.444 151.31 436.612 151.296 436.738H145.276C145.444 438.04 146.494 438.908 147.964 438.908C148.832 438.908 149.56 438.614 150.106 438.012L150.848 438.88C150.176 439.664 149.154 440.084 147.922 440.084C145.528 440.084 143.932 438.502 143.932 436.29C143.932 434.092 145.514 432.51 147.656 432.51C149.798 432.51 151.324 434.05 151.324 436.332ZM147.656 433.644C146.368 433.644 145.416 434.512 145.276 435.772H150.036C149.896 434.526 148.958 433.644 147.656 433.644ZM154.478 433.826C154.954 432.958 155.878 432.51 157.18 432.51V433.812C157.068 433.798 156.97 433.798 156.872 433.798C155.43 433.798 154.534 434.68 154.534 436.304V440H153.19V432.58H154.478V433.826ZM162.889 438.6L163.309 439.566C162.903 439.916 162.287 440.084 161.685 440.084C160.187 440.084 159.333 439.258 159.333 437.76V433.686H158.073V432.58H159.333V430.956H160.677V432.58H162.805V433.686H160.677V437.704C160.677 438.502 161.097 438.95 161.839 438.95C162.231 438.95 162.609 438.824 162.889 438.6ZM165.606 431.152C165.088 431.152 164.696 430.774 164.696 430.284C164.696 429.794 165.088 429.402 165.606 429.402C166.124 429.402 166.516 429.78 166.516 430.256C166.516 430.76 166.138 431.152 165.606 431.152ZM164.934 440V432.58H166.278V440H164.934ZM170.972 440.084C169.74 440.084 168.522 439.706 167.906 439.216L168.466 438.152C169.096 438.6 170.104 438.922 171.07 438.922C172.316 438.922 172.834 438.544 172.834 437.914C172.834 436.248 168.144 437.69 168.144 434.736C168.144 433.406 169.334 432.51 171.238 432.51C172.204 432.51 173.296 432.762 173.94 433.182L173.366 434.246C172.694 433.812 171.952 433.658 171.224 433.658C170.048 433.658 169.474 434.092 169.474 434.68C169.474 436.43 174.178 435.002 174.178 437.886C174.178 439.23 172.946 440.084 170.972 440.084ZM176.53 431.152C176.012 431.152 175.62 430.774 175.62 430.284C175.62 429.794 176.012 429.402 176.53 429.402C177.048 429.402 177.44 429.78 177.44 430.256C177.44 430.76 177.062 431.152 176.53 431.152ZM175.858 440V432.58H177.202V440H175.858ZM183.73 432.51C185.536 432.51 186.81 433.546 186.81 435.73V440H185.466V435.884C185.466 434.428 184.738 433.714 183.464 433.714C182.036 433.714 181.112 434.568 181.112 436.178V440H179.768V432.58H181.056V433.7C181.602 432.944 182.554 432.51 183.73 432.51ZM195.162 432.58H196.436V438.992C196.436 441.61 195.106 442.8 192.586 442.8C191.228 442.8 189.856 442.422 189.044 441.694L189.688 440.658C190.374 441.246 191.452 441.624 192.544 441.624C194.294 441.624 195.092 440.812 195.092 439.132V438.544C194.448 439.314 193.482 439.692 192.418 439.692C190.276 439.692 188.652 438.236 188.652 436.094C188.652 433.952 190.276 432.51 192.418 432.51C193.524 432.51 194.532 432.916 195.162 433.728V432.58ZM192.572 438.516C194.056 438.516 195.12 437.522 195.12 436.094C195.12 434.652 194.056 433.686 192.572 433.686C191.074 433.686 190.01 434.652 190.01 436.094C190.01 437.522 191.074 438.516 192.572 438.516ZM126.556 449.51C128.362 449.51 129.594 450.546 129.594 452.73V457H128.25V452.884C128.25 451.428 127.55 450.714 126.332 450.714C124.988 450.714 124.106 451.568 124.106 453.178V457H122.762V452.884C122.762 451.428 122.062 450.714 120.844 450.714C119.5 450.714 118.618 451.568 118.618 453.178V457H117.274V449.58H118.562V450.686C119.094 449.93 120.004 449.51 121.124 449.51C122.258 449.51 123.21 449.958 123.7 450.882C124.26 450.042 125.296 449.51 126.556 449.51ZM134.769 449.51C136.799 449.51 137.947 450.49 137.947 452.52V457H136.673V456.02C136.225 456.692 135.399 457.084 134.237 457.084C132.557 457.084 131.493 456.188 131.493 454.9C131.493 453.71 132.263 452.73 134.475 452.73H136.603V452.464C136.603 451.33 135.945 450.672 134.615 450.672C133.733 450.672 132.837 450.98 132.263 451.47L131.703 450.462C132.473 449.846 133.579 449.51 134.769 449.51ZM134.461 456.048C135.469 456.048 136.267 455.586 136.603 454.732V453.696H134.531C133.201 453.696 132.823 454.214 132.823 454.844C132.823 455.586 133.439 456.048 134.461 456.048ZM144.186 455.6L144.606 456.566C144.2 456.916 143.584 457.084 142.982 457.084C141.484 457.084 140.63 456.258 140.63 454.76V450.686H139.37V449.58H140.63V447.956H141.974V449.58H144.102V450.686H141.974V454.704C141.974 455.502 142.394 455.95 143.136 455.95C143.528 455.95 143.906 455.824 144.186 455.6ZM149.219 457.084C146.937 457.084 145.299 455.502 145.299 453.29C145.299 451.078 146.937 449.51 149.219 449.51C150.549 449.51 151.655 450.056 152.243 451.092L151.221 451.75C150.745 451.022 150.017 450.686 149.205 450.686C147.749 450.686 146.657 451.708 146.657 453.29C146.657 454.9 147.749 455.908 149.205 455.908C150.017 455.908 150.745 455.572 151.221 454.844L152.243 455.488C151.655 456.524 150.549 457.084 149.219 457.084ZM157.849 449.51C159.655 449.51 160.929 450.546 160.929 452.73V457H159.585V452.884C159.585 451.428 158.857 450.714 157.583 450.714C156.155 450.714 155.231 451.568 155.231 453.178V457H153.887V446.612H155.231V450.63C155.791 449.916 156.715 449.51 157.849 449.51ZM164.089 448.152C163.571 448.152 163.179 447.774 163.179 447.284C163.179 446.794 163.571 446.402 164.089 446.402C164.607 446.402 164.999 446.78 164.999 447.256C164.999 447.76 164.621 448.152 164.089 448.152ZM163.417 457V449.58H164.761V457H163.417ZM171.289 449.51C173.095 449.51 174.369 450.546 174.369 452.73V457H173.025V452.884C173.025 451.428 172.297 450.714 171.023 450.714C169.595 450.714 168.671 451.568 168.671 453.178V457H167.327V449.58H168.615V450.7C169.161 449.944 170.113 449.51 171.289 449.51ZM182.721 449.58H183.995V455.992C183.995 458.61 182.665 459.8 180.145 459.8C178.787 459.8 177.415 459.422 176.603 458.694L177.247 457.658C177.933 458.246 179.011 458.624 180.103 458.624C181.853 458.624 182.651 457.812 182.651 456.132V455.544C182.007 456.314 181.041 456.692 179.977 456.692C177.835 456.692 176.211 455.236 176.211 453.094C176.211 450.952 177.835 449.51 179.977 449.51C181.083 449.51 182.091 449.916 182.721 450.728V449.58ZM180.131 455.516C181.615 455.516 182.679 454.522 182.679 453.094C182.679 451.652 181.615 450.686 180.131 450.686C178.633 450.686 177.569 451.652 177.569 453.094C177.569 454.522 178.633 455.516 180.131 455.516ZM119.976 466.51C122.006 466.51 123.154 467.49 123.154 469.52V474H121.88V473.02C121.432 473.692 120.606 474.084 119.444 474.084C117.764 474.084 116.7 473.188 116.7 471.9C116.7 470.71 117.47 469.73 119.682 469.73H121.81V469.464C121.81 468.33 121.152 467.672 119.822 467.672C118.94 467.672 118.044 467.98 117.47 468.47L116.91 467.462C117.68 466.846 118.786 466.51 119.976 466.51ZM119.668 473.048C120.676 473.048 121.474 472.586 121.81 471.732V470.696H119.738C118.408 470.696 118.03 471.214 118.03 471.844C118.03 472.586 118.646 473.048 119.668 473.048ZM125.641 474V463.612H126.985V474H125.641ZM135.375 466.58H136.649V472.992C136.649 475.61 135.319 476.8 132.799 476.8C131.441 476.8 130.069 476.422 129.257 475.694L129.901 474.658C130.587 475.246 131.665 475.624 132.757 475.624C134.507 475.624 135.305 474.812 135.305 473.132V472.544C134.661 473.314 133.695 473.692 132.631 473.692C130.489 473.692 128.865 472.236 128.865 470.094C128.865 467.952 130.489 466.51 132.631 466.51C133.737 466.51 134.745 466.916 135.375 467.728V466.58ZM132.785 472.516C134.269 472.516 135.333 471.522 135.333 470.094C135.333 468.652 134.269 467.686 132.785 467.686C131.287 467.686 130.223 468.652 130.223 470.094C130.223 471.522 131.287 472.516 132.785 472.516ZM142.395 474.084C140.169 474.084 138.531 472.502 138.531 470.29C138.531 468.078 140.169 466.51 142.395 466.51C144.621 466.51 146.245 468.078 146.245 470.29C146.245 472.502 144.621 474.084 142.395 474.084ZM142.395 472.908C143.823 472.908 144.887 471.872 144.887 470.29C144.887 468.708 143.823 467.686 142.395 467.686C140.967 467.686 139.889 468.708 139.889 470.29C139.889 471.872 140.967 472.908 142.395 472.908ZM149.392 467.826C149.868 466.958 150.792 466.51 152.094 466.51V467.812C151.982 467.798 151.884 467.798 151.786 467.798C150.344 467.798 149.448 468.68 149.448 470.304V474H148.104V466.58H149.392V467.826ZM154.423 465.152C153.905 465.152 153.513 464.774 153.513 464.284C153.513 463.794 153.905 463.402 154.423 463.402C154.941 463.402 155.333 463.78 155.333 464.256C155.333 464.76 154.955 465.152 154.423 465.152ZM153.751 474V466.58H155.095V474H153.751ZM161.413 472.6L161.833 473.566C161.427 473.916 160.811 474.084 160.209 474.084C158.711 474.084 157.857 473.258 157.857 471.76V467.686H156.597V466.58H157.857V464.956H159.201V466.58H161.329V467.686H159.201V471.704C159.201 472.502 159.621 472.95 160.363 472.95C160.755 472.95 161.133 472.824 161.413 472.6ZM167.42 466.51C169.226 466.51 170.5 467.546 170.5 469.73V474H169.156V469.884C169.156 468.428 168.428 467.714 167.154 467.714C165.726 467.714 164.802 468.568 164.802 470.178V474H163.458V463.612H164.802V467.63C165.362 466.916 166.286 466.51 167.42 466.51ZM182.269 466.51C184.075 466.51 185.307 467.546 185.307 469.73V474H183.963V469.884C183.963 468.428 183.263 467.714 182.045 467.714C180.701 467.714 179.819 468.568 179.819 470.178V474H178.475V469.884C178.475 468.428 177.775 467.714 176.557 467.714C175.213 467.714 174.331 468.568 174.331 470.178V474H172.987V466.58H174.275V467.686C174.807 466.93 175.717 466.51 176.837 466.51C177.971 466.51 178.923 466.958 179.413 467.882C179.973 467.042 181.009 466.51 182.269 466.51Z" fill="white"/>
    <path fill-rule="evenodd" clip-rule="evenodd" d="M1 1H313V184H1V1Z" fill="#FEFFFF" stroke="black" stroke-width="2"/>
    <path fill-rule="evenodd" clip-rule="evenodd" d="M1 1H313V39H1V1Z" fill="#FEFFFF" stroke="black" stroke-width="2"/>
    <path fill-rule="evenodd" clip-rule="evenodd" d="M72.0736 59C74.8403 59 77.0833 61.4567 77.0833 64.487C77.0833 67.5163 74.8403 69.973 72.0736 69.973C69.3068 69.973 67.0639 67.5163 67.0639 64.487C67.0639 61.4567 69.3068 59 72.0736 59ZM78.7391 78.5208H74.3902V99.3789H69.4057V78.5208H65.3291L56.5729 98.8229L52 96.8358L61.9622 73.7377V73.5193H82.1682V73.9285L92 96.9153L87.4582 98.9057L78.7391 78.5208ZM64.0363 99.3117H68.954V133.803H64.0363V99.3117ZM79.7763 99.3117H74.8419V133.803H79.7763V99.3117Z" fill="black" fill-opacity="0.01"/>
    <path d="M78.7391 78.5208L79.6585 78.1275L79.399 77.5208H78.7391V78.5208ZM74.3902 78.5208V77.5208H73.3902V78.5208H74.3902ZM74.3902 99.3789V100.379H75.3902V99.3789H74.3902ZM69.4057 99.3789H68.4057V100.379H69.4057V99.3789ZM69.4057 78.5208H70.4057V77.5208H69.4057V78.5208ZM65.3291 78.5208V77.5208H64.6714L64.4109 78.1248L65.3291 78.5208ZM56.5729 98.8229L56.1743 99.74L57.094 100.14L57.4911 99.2189L56.5729 98.8229ZM52 96.8358L51.0818 96.4398L50.6868 97.3556L51.6015 97.753L52 96.8358ZM61.9622 73.7377L62.8805 74.1337L62.9622 73.9441V73.7377H61.9622ZM61.9622 73.5193V72.5193H60.9622V73.5193H61.9622ZM82.1682 73.5193H83.1682V72.5193H82.1682V73.5193ZM82.1682 73.9285H81.1682V74.1333L81.2488 74.3217L82.1682 73.9285ZM92 96.9153L92.4014 97.8312L93.3092 97.4334L92.9194 96.522L92 96.9153ZM87.4582 98.9057L86.5387 99.299L86.9355 100.227L87.8596 99.8217L87.4582 98.9057ZM68.954 99.3117H69.954V98.3117H68.954V99.3117ZM64.0363 99.3117V98.3117H63.0363V99.3117H64.0363ZM68.954 133.803V134.803H69.954V133.803H68.954ZM64.0363 133.803H63.0363V134.803H64.0363V133.803ZM74.8419 99.3117V98.3117H73.8419V99.3117H74.8419ZM79.7763 99.3117H80.7763V98.3117H79.7763V99.3117ZM74.8419 133.803H73.8419V134.803H74.8419V133.803ZM79.7763 133.803V134.803H80.7763V133.803H79.7763ZM78.0833 64.487C78.0833 60.992 75.4763 58 72.0736 58V60C74.2043 60 76.0833 61.9214 76.0833 64.487H78.0833ZM72.0736 70.973C75.4762 70.973 78.0833 67.9811 78.0833 64.487H76.0833C76.0833 67.0515 74.2045 68.973 72.0736 68.973V70.973ZM66.0639 64.487C66.0639 67.9811 68.6709 70.973 72.0736 70.973V68.973C69.9427 68.973 68.0639 67.0515 68.0639 64.487H66.0639ZM72.0736 58C68.6708 58 66.0639 60.992 66.0639 64.487H68.0639C68.0639 61.9213 69.9428 60 72.0736 60V58ZM78.7391 77.5208H74.3902V79.5208H78.7391V77.5208ZM73.3902 78.5208V99.3789H75.3902V78.5208H73.3902ZM74.3902 98.3789H69.4057V100.379H74.3902V98.3789ZM70.4057 99.3789V78.5208H68.4057V99.3789H70.4057ZM69.4057 77.5208H65.3291V79.5208H69.4057V77.5208ZM64.4109 78.1248L55.6546 98.4268L57.4911 99.2189L66.2474 78.9168L64.4109 78.1248ZM56.9714 97.9057L52.3985 95.9187L51.6015 97.753L56.1743 99.74L56.9714 97.9057ZM52.9182 97.2319L62.8805 74.1337L61.044 73.3416L51.0818 96.4398L52.9182 97.2319ZM62.9622 73.7377V73.5193H60.9622V73.7377H62.9622ZM61.9622 74.5193H82.1682V72.5193H61.9622V74.5193ZM81.1682 73.5193V73.9285H83.1682V73.5193H81.1682ZM92.9194 96.522L83.0877 73.5352L81.2488 74.3217L91.0806 97.3085L92.9194 96.522ZM87.8596 99.8217L92.4014 97.8312L91.5986 95.9994L87.0568 97.9898L87.8596 99.8217ZM77.8197 78.914L86.5387 99.299L88.3776 98.5125L79.6585 78.1275L77.8197 78.914ZM68.954 98.3117H64.0363V100.312H68.954V98.3117ZM69.954 133.803V99.3117H67.954V133.803H69.954ZM64.0363 134.803H68.954V132.803H64.0363V134.803ZM63.0363 99.3117V133.803H65.0363V99.3117H63.0363ZM74.8419 100.312H79.7763V98.3117H74.8419V100.312ZM75.8419 133.803V99.3117H73.8419V133.803H75.8419ZM79.7763 132.803H74.8419V134.803H79.7763V132.803ZM78.7763 99.3117V133.803H80.7763V99.3117H78.7763Z" fill="black"/>
    <path fill-rule="evenodd" clip-rule="evenodd" d="M169 82H284V141H169V82Z" fill="black" stroke="black" stroke-width="2"/>
    <path d="M184.292 98.2C186.84 98.2 188.38 99.488 188.38 101.616C188.38 103.744 186.84 105.032 184.292 105.032H181.87V108H180.47V98.2H184.292ZM184.25 103.814C186.042 103.814 186.98 103.016 186.98 101.616C186.98 100.216 186.042 99.418 184.25 99.418H181.87V103.814H184.25ZM196.919 104.332C196.919 104.444 196.905 104.612 196.891 104.738H190.871C191.039 106.04 192.089 106.908 193.559 106.908C194.427 106.908 195.155 106.614 195.701 106.012L196.443 106.88C195.771 107.664 194.749 108.084 193.517 108.084C191.123 108.084 189.527 106.502 189.527 104.29C189.527 102.092 191.109 100.51 193.251 100.51C195.393 100.51 196.919 102.05 196.919 104.332ZM193.251 101.644C191.963 101.644 191.011 102.512 190.871 103.772H195.631C195.491 102.526 194.553 101.644 193.251 101.644ZM200.074 101.826C200.55 100.958 201.474 100.51 202.776 100.51V101.812C202.664 101.798 202.566 101.798 202.468 101.798C201.026 101.798 200.13 102.68 200.13 104.304V108H198.786V100.58H200.074V101.826ZM206.615 108.084C205.383 108.084 204.165 107.706 203.549 107.216L204.109 106.152C204.739 106.6 205.747 106.922 206.713 106.922C207.959 106.922 208.477 106.544 208.477 105.914C208.477 104.248 203.787 105.69 203.787 102.736C203.787 101.406 204.977 100.51 206.881 100.51C207.847 100.51 208.939 100.762 209.583 101.182L209.009 102.246C208.337 101.812 207.595 101.658 206.867 101.658C205.691 101.658 205.117 102.092 205.117 102.68C205.117 104.43 209.821 103.002 209.821 105.886C209.821 107.23 208.589 108.084 206.615 108.084ZM214.679 108.084C212.453 108.084 210.815 106.502 210.815 104.29C210.815 102.078 212.453 100.51 214.679 100.51C216.905 100.51 218.529 102.078 218.529 104.29C218.529 106.502 216.905 108.084 214.679 108.084ZM214.679 106.908C216.107 106.908 217.171 105.872 217.171 104.29C217.171 102.708 216.107 101.686 214.679 101.686C213.251 101.686 212.173 102.708 212.173 104.29C212.173 105.872 213.251 106.908 214.679 106.908ZM224.349 100.51C226.155 100.51 227.429 101.546 227.429 103.73V108H226.085V103.884C226.085 102.428 225.357 101.714 224.083 101.714C222.655 101.714 221.731 102.568 221.731 104.178V108H220.387V100.58H221.675V101.7C222.221 100.944 223.173 100.51 224.349 100.51ZM232.619 100.51C234.649 100.51 235.797 101.49 235.797 103.52V108H234.523V107.02C234.075 107.692 233.249 108.084 232.087 108.084C230.407 108.084 229.343 107.188 229.343 105.9C229.343 104.71 230.113 103.73 232.325 103.73H234.453V103.464C234.453 102.33 233.795 101.672 232.465 101.672C231.583 101.672 230.687 101.98 230.113 102.47L229.553 101.462C230.323 100.846 231.429 100.51 232.619 100.51ZM232.311 107.048C233.319 107.048 234.117 106.586 234.453 105.732V104.696H232.381C231.051 104.696 230.673 105.214 230.673 105.844C230.673 106.586 231.289 107.048 232.311 107.048ZM238.284 108V97.612H239.628V108H238.284ZM251.61 97.612H252.954V108H251.666V106.824C251.064 107.664 250.112 108.084 249.02 108.084C246.85 108.084 245.268 106.558 245.268 104.29C245.268 102.022 246.85 100.51 249.02 100.51C250.07 100.51 250.994 100.902 251.61 101.7V97.612ZM249.132 106.908C250.546 106.908 251.624 105.872 251.624 104.29C251.624 102.708 250.546 101.686 249.132 101.686C247.704 101.686 246.626 102.708 246.626 104.29C246.626 105.872 247.704 106.908 249.132 106.908ZM258.199 100.51C260.229 100.51 261.377 101.49 261.377 103.52V108H260.103V107.02C259.655 107.692 258.829 108.084 257.667 108.084C255.987 108.084 254.923 107.188 254.923 105.9C254.923 104.71 255.693 103.73 257.905 103.73H260.033V103.464C260.033 102.33 259.375 101.672 258.045 101.672C257.163 101.672 256.267 101.98 255.693 102.47L255.133 101.462C255.903 100.846 257.009 100.51 258.199 100.51ZM257.891 107.048C258.899 107.048 259.697 106.586 260.033 105.732V104.696H257.961C256.631 104.696 256.253 105.214 256.253 105.844C256.253 106.586 256.869 107.048 257.891 107.048ZM267.616 106.6L268.036 107.566C267.63 107.916 267.014 108.084 266.412 108.084C264.914 108.084 264.06 107.258 264.06 105.76V101.686H262.8V100.58H264.06V98.956H265.404V100.58H267.532V101.686H265.404V105.704C265.404 106.502 265.824 106.95 266.566 106.95C266.958 106.95 267.336 106.824 267.616 106.6ZM272.363 100.51C274.393 100.51 275.541 101.49 275.541 103.52V108H274.267V107.02C273.819 107.692 272.993 108.084 271.831 108.084C270.151 108.084 269.087 107.188 269.087 105.9C269.087 104.71 269.857 103.73 272.069 103.73H274.197V103.464C274.197 102.33 273.539 101.672 272.209 101.672C271.327 101.672 270.431 101.98 269.857 102.47L269.297 101.462C270.067 100.846 271.173 100.51 272.363 100.51ZM272.055 107.048C273.063 107.048 273.861 106.586 274.197 105.732V104.696H272.125C270.795 104.696 270.417 105.214 270.417 105.844C270.417 106.586 271.033 107.048 272.055 107.048ZM188.394 124.258L187.638 125.154L186.336 123.852C185.482 124.678 184.362 125.112 183.06 125.112C181.072 125.112 179.63 124.062 179.63 122.564C179.63 121.36 180.316 120.52 182.01 119.554C181.128 118.672 180.834 118.042 180.834 117.314C180.834 115.998 181.87 115.116 183.48 115.116C184.964 115.116 185.916 115.886 185.916 117.16C185.916 118.154 185.328 118.868 183.83 119.722L186.252 122.13C186.518 121.626 186.728 121.038 186.854 120.352L187.932 120.702C187.764 121.57 187.47 122.326 187.078 122.942L188.394 124.258ZM183.48 116.096C182.598 116.096 182.08 116.586 182.08 117.286C182.08 117.79 182.276 118.154 183.074 118.966C184.362 118.238 184.782 117.79 184.782 117.174C184.782 116.53 184.32 116.096 183.48 116.096ZM183.144 123.992C184.082 123.992 184.908 123.684 185.538 123.068L182.752 120.296C181.38 121.066 180.946 121.64 180.946 122.424C180.946 123.362 181.828 123.992 183.144 123.992ZM194.303 116.152C193.785 116.152 193.393 115.774 193.393 115.284C193.393 114.794 193.785 114.402 194.303 114.402C194.821 114.402 195.213 114.78 195.213 115.256C195.213 115.76 194.835 116.152 194.303 116.152ZM193.631 125V117.58H194.975V125H193.631ZM201.504 117.51C203.31 117.51 204.584 118.546 204.584 120.73V125H203.24V120.884C203.24 119.428 202.512 118.714 201.238 118.714C199.81 118.714 198.886 119.568 198.886 121.178V125H197.542V117.58H198.83V118.7C199.376 117.944 200.328 117.51 201.504 117.51ZM210.823 123.6L211.243 124.566C210.837 124.916 210.221 125.084 209.619 125.084C208.121 125.084 207.267 124.258 207.267 122.76V118.686H206.007V117.58H207.267V115.956H208.611V117.58H210.739V118.686H208.611V122.704C208.611 123.502 209.031 123.95 209.773 123.95C210.165 123.95 210.543 123.824 210.823 123.6ZM219.328 121.332C219.328 121.444 219.314 121.612 219.3 121.738H213.28C213.448 123.04 214.498 123.908 215.968 123.908C216.836 123.908 217.564 123.614 218.11 123.012L218.852 123.88C218.18 124.664 217.158 125.084 215.926 125.084C213.532 125.084 211.936 123.502 211.936 121.29C211.936 119.092 213.518 117.51 215.66 117.51C217.802 117.51 219.328 119.05 219.328 121.332ZM215.66 118.644C214.372 118.644 213.42 119.512 213.28 120.772H218.04C217.9 119.526 216.962 118.644 215.66 118.644ZM222.482 118.826C222.958 117.958 223.882 117.51 225.184 117.51V118.812C225.072 118.798 224.974 118.798 224.876 118.798C223.434 118.798 222.538 119.68 222.538 121.304V125H221.194V117.58H222.482V118.826ZM233.478 121.332C233.478 121.444 233.464 121.612 233.45 121.738H227.43C227.598 123.04 228.648 123.908 230.118 123.908C230.986 123.908 231.714 123.614 232.26 123.012L233.002 123.88C232.33 124.664 231.308 125.084 230.076 125.084C227.682 125.084 226.086 123.502 226.086 121.29C226.086 119.092 227.668 117.51 229.81 117.51C231.952 117.51 233.478 119.05 233.478 121.332ZM229.81 118.644C228.522 118.644 227.57 119.512 227.43 120.772H232.19C232.05 119.526 231.112 118.644 229.81 118.644ZM237.472 125.084C236.24 125.084 235.022 124.706 234.406 124.216L234.966 123.152C235.596 123.6 236.604 123.922 237.57 123.922C238.816 123.922 239.334 123.544 239.334 122.914C239.334 121.248 234.644 122.69 234.644 119.736C234.644 118.406 235.834 117.51 237.738 117.51C238.704 117.51 239.796 117.762 240.44 118.182L239.866 119.246C239.194 118.812 238.452 118.658 237.724 118.658C236.548 118.658 235.974 119.092 235.974 119.68C235.974 121.43 240.678 120.002 240.678 122.886C240.678 124.23 239.446 125.084 237.472 125.084ZM246.11 123.6L246.53 124.566C246.124 124.916 245.508 125.084 244.906 125.084C243.408 125.084 242.554 124.258 242.554 122.76V118.686H241.294V117.58H242.554V115.956H243.898V117.58H246.026V118.686H243.898V122.704C243.898 123.502 244.318 123.95 245.06 123.95C245.452 123.95 245.83 123.824 246.11 123.6ZM250.283 125.084C249.051 125.084 247.833 124.706 247.217 124.216L247.777 123.152C248.407 123.6 249.415 123.922 250.381 123.922C251.627 123.922 252.145 123.544 252.145 122.914C252.145 121.248 247.455 122.69 247.455 119.736C247.455 118.406 248.645 117.51 250.549 117.51C251.515 117.51 252.607 117.762 253.251 118.182L252.677 119.246C252.005 118.812 251.263 118.658 250.535 118.658C249.359 118.658 248.785 119.092 248.785 119.68C248.785 121.43 253.489 120.002 253.489 122.886C253.489 124.23 252.257 125.084 250.283 125.084Z" fill="white"/>
    <path d="M42.852 164.112C39.884 164.112 37.672 161.998 37.672 159.1C37.672 156.202 39.884 154.088 42.866 154.088C44.378 154.088 45.694 154.606 46.59 155.614L45.68 156.496C44.924 155.698 44 155.334 42.922 155.334C40.71 155.334 39.072 156.93 39.072 159.1C39.072 161.27 40.71 162.866 42.922 162.866C44 162.866 44.924 162.488 45.68 161.69L46.59 162.572C45.694 163.58 44.378 164.112 42.852 164.112ZM53.7308 156.58H55.0748V164H53.8008V162.88C53.2548 163.65 52.3308 164.084 51.2808 164.084C49.3628 164.084 48.0888 163.034 48.0888 160.85V156.58H49.4328V160.696C49.4328 162.152 50.1608 162.88 51.4348 162.88C52.8348 162.88 53.7308 162.012 53.7308 160.416V156.58ZM59.7614 164.084C58.5294 164.084 57.3114 163.706 56.6954 163.216L57.2554 162.152C57.8854 162.6 58.8934 162.922 59.8594 162.922C61.1054 162.922 61.6234 162.544 61.6234 161.914C61.6234 160.248 56.9334 161.69 56.9334 158.736C56.9334 157.406 58.1234 156.51 60.0274 156.51C60.9934 156.51 62.0854 156.762 62.7294 157.182L62.1554 158.246C61.4834 157.812 60.7414 157.658 60.0134 157.658C58.8374 157.658 58.2634 158.092 58.2634 158.68C58.2634 160.43 62.9674 159.002 62.9674 161.886C62.9674 163.23 61.7354 164.084 59.7614 164.084ZM68.399 162.6L68.819 163.566C68.413 163.916 67.797 164.084 67.195 164.084C65.697 164.084 64.843 163.258 64.843 161.76V157.686H63.583V156.58H64.843V154.956H66.187V156.58H68.315V157.686H66.187V161.704C66.187 162.502 66.607 162.95 67.349 162.95C67.741 162.95 68.119 162.824 68.399 162.6ZM73.3758 164.084C71.1498 164.084 69.5118 162.502 69.5118 160.29C69.5118 158.078 71.1498 156.51 73.3758 156.51C75.6018 156.51 77.2258 158.078 77.2258 160.29C77.2258 162.502 75.6018 164.084 73.3758 164.084ZM73.3758 162.908C74.8038 162.908 75.8678 161.872 75.8678 160.29C75.8678 158.708 74.8038 157.686 73.3758 157.686C71.9478 157.686 70.8698 158.708 70.8698 160.29C70.8698 161.872 71.9478 162.908 73.3758 162.908ZM88.3665 156.51C90.1725 156.51 91.4045 157.546 91.4045 159.73V164H90.0605V159.884C90.0605 158.428 89.3605 157.714 88.1425 157.714C86.7985 157.714 85.9165 158.568 85.9165 160.178V164H84.5725V159.884C84.5725 158.428 83.8725 157.714 82.6545 157.714C81.3105 157.714 80.4285 158.568 80.4285 160.178V164H79.0845V156.58H80.3725V157.686C80.9045 156.93 81.8145 156.51 82.9345 156.51C84.0685 156.51 85.0205 156.958 85.5105 157.882C86.0705 157.042 87.1065 156.51 88.3665 156.51ZM100.625 160.332C100.625 160.444 100.611 160.612 100.597 160.738H94.5765C94.7445 162.04 95.7945 162.908 97.2645 162.908C98.1325 162.908 98.8605 162.614 99.4065 162.012L100.149 162.88C99.4765 163.664 98.4545 164.084 97.2225 164.084C94.8285 164.084 93.2325 162.502 93.2325 160.29C93.2325 158.092 94.8145 156.51 96.9565 156.51C99.0985 156.51 100.625 158.05 100.625 160.332ZM96.9565 157.644C95.6685 157.644 94.7165 158.512 94.5765 159.772H99.3365C99.1965 158.526 98.2585 157.644 96.9565 157.644ZM103.779 157.826C104.255 156.958 105.179 156.51 106.481 156.51V157.812C106.369 157.798 106.271 157.798 106.173 157.798C104.731 157.798 103.835 158.68 103.835 160.304V164H102.491V156.58H103.779V157.826Z" fill="black"/>
    <path d="M102.97 27H100.51L100.49 17.72L95.8895 25.4H94.7295L90.1295 17.84V27H87.6495V13H89.7895L95.3495 22.28L100.81 13H102.95L102.97 27ZM111.311 27.14C108.031 27.14 105.631 24.86 105.631 21.66C105.631 18.46 108.031 16.2 111.311 16.2C114.631 16.2 117.011 18.46 117.011 21.66C117.011 24.86 114.631 27.14 111.311 27.14ZM111.311 25C113.131 25 114.491 23.7 114.491 21.66C114.491 19.62 113.131 18.32 111.311 18.32C109.511 18.32 108.151 19.62 108.151 21.66C108.151 23.7 109.511 25 111.311 25ZM125.322 16.2C128.442 16.2 130.742 18.34 130.742 21.66C130.742 24.98 128.442 27.14 125.322 27.14C123.862 27.14 122.622 26.64 121.782 25.62V27H119.402V12.16H121.902V17.62C122.762 16.66 123.962 16.2 125.322 16.2ZM125.042 25C126.842 25 128.202 23.7 128.202 21.66C128.202 19.62 126.842 18.32 125.042 18.32C123.242 18.32 121.862 19.62 121.862 21.66C121.862 23.7 123.242 25 125.042 25ZM134.373 14.56C133.453 14.56 132.773 13.9 132.773 13.06C132.773 12.22 133.453 11.56 134.373 11.56C135.293 11.56 135.973 12.18 135.973 13C135.973 13.88 135.313 14.56 134.373 14.56ZM133.113 27V16.32H135.613V27H133.113ZM138.894 27V12.16H141.394V27H138.894ZM154.715 21.72C154.715 21.92 154.695 22.22 154.675 22.46H146.295C146.595 24.02 147.895 25.02 149.755 25.02C150.955 25.02 151.895 24.64 152.655 23.86L153.995 25.4C153.035 26.54 151.535 27.14 149.695 27.14C146.115 27.14 143.795 24.84 143.795 21.66C143.795 18.48 146.135 16.2 149.315 16.2C152.435 16.2 154.715 18.38 154.715 21.72ZM149.315 18.2C147.695 18.2 146.515 19.24 146.275 20.8H152.335C152.135 19.26 150.955 18.2 149.315 18.2ZM170.604 12.16H173.104V27H170.704V25.62C169.864 26.64 168.624 27.14 167.164 27.14C164.064 27.14 161.764 24.98 161.764 21.66C161.764 18.34 164.064 16.2 167.164 16.2C168.544 16.2 169.764 16.66 170.604 17.64V12.16ZM167.464 25C169.264 25 170.644 23.7 170.644 21.66C170.644 19.62 169.264 18.32 167.464 18.32C165.664 18.32 164.284 19.62 164.284 21.66C164.284 23.7 165.664 25 167.464 25ZM186.414 21.72C186.414 21.92 186.394 22.22 186.374 22.46H177.994C178.294 24.02 179.594 25.02 181.454 25.02C182.654 25.02 183.594 24.64 184.354 23.86L185.694 25.4C184.734 26.54 183.234 27.14 181.394 27.14C177.814 27.14 175.494 24.84 175.494 21.66C175.494 18.48 177.834 16.2 181.014 16.2C184.134 16.2 186.414 18.38 186.414 21.72ZM181.014 18.2C179.394 18.2 178.214 19.24 177.974 20.8H184.034C183.834 19.26 182.654 18.2 181.014 18.2ZM196.22 16.32H198.62L194.04 27H191.46L186.88 16.32H189.48L192.8 24.24L196.22 16.32ZM201.443 14.56C200.523 14.56 199.843 13.9 199.843 13.06C199.843 12.22 200.523 11.56 201.443 11.56C202.363 11.56 203.043 12.18 203.043 13C203.043 13.88 202.383 14.56 201.443 14.56ZM200.183 27V16.32H202.683V27H200.183ZM210.864 27.14C207.484 27.14 205.084 24.86 205.084 21.66C205.084 18.46 207.484 16.2 210.864 16.2C212.944 16.2 214.604 17.06 215.424 18.68L213.504 19.8C212.864 18.78 211.904 18.32 210.844 18.32C209.004 18.32 207.604 19.6 207.604 21.66C207.604 23.74 209.004 25 210.844 25C211.904 25 212.864 24.54 213.504 23.52L215.424 24.64C214.604 26.24 212.944 27.14 210.864 27.14ZM227.469 21.72C227.469 21.92 227.449 22.22 227.429 22.46H219.049C219.349 24.02 220.649 25.02 222.509 25.02C223.709 25.02 224.649 24.64 225.409 23.86L226.749 25.4C225.789 26.54 224.289 27.14 222.449 27.14C218.869 27.14 216.549 24.84 216.549 21.66C216.549 18.48 218.889 16.2 222.069 16.2C225.189 16.2 227.469 18.38 227.469 21.72ZM222.069 18.2C220.449 18.2 219.269 19.24 219.029 20.8H225.089C224.889 19.26 223.709 18.2 222.069 18.2Z" fill="black"/>
    <path fill-rule="evenodd" clip-rule="evenodd" d="M1 638H313V821H1V638Z" fill="#FEFFFF" stroke="black" stroke-width="2"/>
    <path fill-rule="evenodd" clip-rule="evenodd" d="M1 638H313V676H1V638Z" fill="#FEFFFF" stroke="black" stroke-width="2"/>
    <path fill-rule="evenodd" clip-rule="evenodd" d="M72.0736 696C74.8403 696 77.0833 698.457 77.0833 701.487C77.0833 704.516 74.8403 706.973 72.0736 706.973C69.3068 706.973 67.0639 704.516 67.0639 701.487C67.0639 698.457 69.3068 696 72.0736 696ZM78.7391 715.521H74.3902V736.379H69.4057V715.521H65.3291L56.5729 735.823L52 733.836L61.9622 710.738V710.519H82.1682V710.928L92 733.915L87.4582 735.906L78.7391 715.521ZM64.0363 736.312H68.954V770.803H64.0363V736.312ZM79.7763 736.312H74.8419V770.803H79.7763V736.312Z" fill="black" fill-opacity="0.01"/>
    <path d="M78.7391 715.521L79.6585 715.128L79.399 714.521H78.7391V715.521ZM74.3902 715.521V714.521H73.3902V715.521H74.3902ZM74.3902 736.379V737.379H75.3902V736.379H74.3902ZM69.4057 736.379H68.4057V737.379H69.4057V736.379ZM69.4057 715.521H70.4057V714.521H69.4057V715.521ZM65.3291 715.521V714.521H64.6714L64.4109 715.125L65.3291 715.521ZM56.5729 735.823L56.1743 736.74L57.094 737.14L57.4911 736.219L56.5729 735.823ZM52 733.836L51.0818 733.44L50.6868 734.356L51.6015 734.753L52 733.836ZM61.9622 710.738L62.8805 711.134L62.9622 710.944V710.738H61.9622ZM61.9622 710.519V709.519H60.9622V710.519H61.9622ZM82.1682 710.519H83.1682V709.519H82.1682V710.519ZM82.1682 710.928H81.1682V711.133L81.2488 711.322L82.1682 710.928ZM92 733.915L92.4014 734.831L93.3092 734.433L92.9194 733.522L92 733.915ZM87.4582 735.906L86.5387 736.299L86.9355 737.227L87.8596 736.822L87.4582 735.906ZM68.954 736.312H69.954V735.312H68.954V736.312ZM64.0363 736.312V735.312H63.0363V736.312H64.0363ZM68.954 770.803V771.803H69.954V770.803H68.954ZM64.0363 770.803H63.0363V771.803H64.0363V770.803ZM74.8419 736.312V735.312H73.8419V736.312H74.8419ZM79.7763 736.312H80.7763V735.312H79.7763V736.312ZM74.8419 770.803H73.8419V771.803H74.8419V770.803ZM79.7763 770.803V771.803H80.7763V770.803H79.7763ZM78.0833 701.487C78.0833 697.992 75.4763 695 72.0736 695V697C74.2043 697 76.0833 698.921 76.0833 701.487H78.0833ZM72.0736 707.973C75.4762 707.973 78.0833 704.981 78.0833 701.487H76.0833C76.0833 704.051 74.2045 705.973 72.0736 705.973V707.973ZM66.0639 701.487C66.0639 704.981 68.6709 707.973 72.0736 707.973V705.973C69.9427 705.973 68.0639 704.052 68.0639 701.487H66.0639ZM72.0736 695C68.6708 695 66.0639 697.992 66.0639 701.487H68.0639C68.0639 698.921 69.9428 697 72.0736 697V695ZM78.7391 714.521H74.3902V716.521H78.7391V714.521ZM73.3902 715.521V736.379H75.3902V715.521H73.3902ZM74.3902 735.379H69.4057V737.379H74.3902V735.379ZM70.4057 736.379V715.521H68.4057V736.379H70.4057ZM69.4057 714.521H65.3291V716.521H69.4057V714.521ZM64.4109 715.125L55.6546 735.427L57.4911 736.219L66.2474 715.917L64.4109 715.125ZM56.9714 734.906L52.3985 732.919L51.6015 734.753L56.1743 736.74L56.9714 734.906ZM52.9182 734.232L62.8805 711.134L61.044 710.342L51.0818 733.44L52.9182 734.232ZM62.9622 710.738V710.519H60.9622V710.738H62.9622ZM61.9622 711.519H82.1682V709.519H61.9622V711.519ZM81.1682 710.519V710.928H83.1682V710.519H81.1682ZM92.9194 733.522L83.0877 710.535L81.2488 711.322L91.0806 734.309L92.9194 733.522ZM87.8596 736.822L92.4014 734.831L91.5986 732.999L87.0568 734.99L87.8596 736.822ZM77.8197 715.914L86.5387 736.299L88.3776 735.512L79.6585 715.128L77.8197 715.914ZM68.954 735.312H64.0363V737.312H68.954V735.312ZM69.954 770.803V736.312H67.954V770.803H69.954ZM64.0363 771.803H68.954V769.803H64.0363V771.803ZM63.0363 736.312V770.803H65.0363V736.312H63.0363ZM74.8419 737.312H79.7763V735.312H74.8419V737.312ZM75.8419 770.803V736.312H73.8419V770.803H75.8419ZM79.7763 769.803H74.8419V771.803H79.7763V769.803ZM78.7763 736.312V770.803H80.7763V736.312H78.7763Z" fill="black"/>
    <path fill-rule="evenodd" clip-rule="evenodd" d="M169 719H284V778H169V719Z" fill="black" stroke="black" stroke-width="2"/>
    <path d="M187.792 745L186.714 742.55H181.506L180.428 745H178.986L183.424 735.2H184.81L189.262 745H187.792ZM181.996 741.43H186.224L184.11 736.628L181.996 741.43ZM196.116 734.612H197.46V745H196.172V743.824C195.57 744.664 194.618 745.084 193.526 745.084C191.356 745.084 189.774 743.558 189.774 741.29C189.774 739.022 191.356 737.51 193.526 737.51C194.576 737.51 195.5 737.902 196.116 738.7V734.612ZM193.638 743.908C195.052 743.908 196.13 742.872 196.13 741.29C196.13 739.708 195.052 738.686 193.638 738.686C192.21 738.686 191.132 739.708 191.132 741.29C191.132 742.872 192.21 743.908 193.638 743.908ZM205.253 737.58H206.569L203.321 745H201.949L198.701 737.58H200.101L202.649 743.53L205.253 737.58ZM214.324 741.332C214.324 741.444 214.31 741.612 214.296 741.738H208.276C208.444 743.04 209.494 743.908 210.964 743.908C211.832 743.908 212.56 743.614 213.106 743.012L213.848 743.88C213.176 744.664 212.154 745.084 210.922 745.084C208.528 745.084 206.932 743.502 206.932 741.29C206.932 739.092 208.514 737.51 210.656 737.51C212.798 737.51 214.324 739.05 214.324 741.332ZM210.656 738.644C209.368 738.644 208.416 739.512 208.276 740.772H213.036C212.896 739.526 211.958 738.644 210.656 738.644ZM217.478 738.826C217.954 737.958 218.878 737.51 220.18 737.51V738.812C220.068 738.798 219.97 738.798 219.872 738.798C218.43 738.798 217.534 739.68 217.534 741.304V745H216.19V737.58H217.478V738.826ZM225.889 743.6L226.309 744.566C225.903 744.916 225.287 745.084 224.685 745.084C223.187 745.084 222.333 744.258 222.333 742.76V738.686H221.073V737.58H222.333V735.956H223.677V737.58H225.805V738.686H223.677V742.704C223.677 743.502 224.097 743.95 224.839 743.95C225.231 743.95 225.609 743.824 225.889 743.6ZM228.606 736.152C228.088 736.152 227.696 735.774 227.696 735.284C227.696 734.794 228.088 734.402 228.606 734.402C229.124 734.402 229.516 734.78 229.516 735.256C229.516 735.76 229.138 736.152 228.606 736.152ZM227.934 745V737.58H229.278V745H227.934ZM233.972 745.084C232.74 745.084 231.522 744.706 230.906 744.216L231.466 743.152C232.096 743.6 233.104 743.922 234.07 743.922C235.316 743.922 235.834 743.544 235.834 742.914C235.834 741.248 231.144 742.69 231.144 739.736C231.144 738.406 232.334 737.51 234.238 737.51C235.204 737.51 236.296 737.762 236.94 738.182L236.366 739.246C235.694 738.812 234.952 738.658 234.224 738.658C233.048 738.658 232.474 739.092 232.474 739.68C232.474 741.43 237.178 740.002 237.178 742.886C237.178 744.23 235.946 745.084 233.972 745.084ZM239.53 736.152C239.012 736.152 238.62 735.774 238.62 735.284C238.62 734.794 239.012 734.402 239.53 734.402C240.048 734.402 240.44 734.78 240.44 735.256C240.44 735.76 240.062 736.152 239.53 736.152ZM238.858 745V737.58H240.202V745H238.858ZM246.73 737.51C248.536 737.51 249.81 738.546 249.81 740.73V745H248.466V740.884C248.466 739.428 247.738 738.714 246.464 738.714C245.036 738.714 244.112 739.568 244.112 741.178V745H242.768V737.58H244.056V738.7C244.602 737.944 245.554 737.51 246.73 737.51ZM258.162 737.58H259.436V743.992C259.436 746.61 258.106 747.8 255.586 747.8C254.228 747.8 252.856 747.422 252.044 746.694L252.688 745.658C253.374 746.246 254.452 746.624 255.544 746.624C257.294 746.624 258.092 745.812 258.092 744.132V743.544C257.448 744.314 256.482 744.692 255.418 744.692C253.276 744.692 251.652 743.236 251.652 741.094C251.652 738.952 253.276 737.51 255.418 737.51C256.524 737.51 257.532 737.916 258.162 738.728V737.58ZM255.572 743.516C257.056 743.516 258.12 742.522 258.12 741.094C258.12 739.652 257.056 738.686 255.572 738.686C254.074 738.686 253.01 739.652 253.01 741.094C253.01 742.522 254.074 743.516 255.572 743.516ZM181.562 755.826C182.038 754.958 182.962 754.51 184.264 754.51V755.812C184.152 755.798 184.054 755.798 183.956 755.798C182.514 755.798 181.618 756.68 181.618 758.304V762H180.274V754.58H181.562V755.826ZM192.558 758.332C192.558 758.444 192.544 758.612 192.53 758.738H186.51C186.678 760.04 187.728 760.908 189.198 760.908C190.066 760.908 190.794 760.614 191.34 760.012L192.082 760.88C191.41 761.664 190.388 762.084 189.156 762.084C186.762 762.084 185.166 760.502 185.166 758.29C185.166 756.092 186.748 754.51 188.89 754.51C191.032 754.51 192.558 756.05 192.558 758.332ZM188.89 755.644C187.602 755.644 186.65 756.512 186.51 757.772H191.27C191.13 756.526 190.192 755.644 188.89 755.644ZM200.136 754.58H201.424V764.716H200.08V760.88C199.464 761.678 198.54 762.084 197.49 762.084C195.32 762.084 193.738 760.572 193.738 758.29C193.738 756.022 195.32 754.51 197.49 754.51C198.582 754.51 199.534 754.93 200.136 755.756V754.58ZM197.602 760.908C199.016 760.908 200.094 759.872 200.094 758.29C200.094 756.722 199.016 755.686 197.602 755.686C196.174 755.686 195.096 756.722 195.096 758.29C195.096 759.872 196.174 760.908 197.602 760.908ZM209.539 754.58H210.883V762H209.609V760.88C209.063 761.65 208.139 762.084 207.089 762.084C205.171 762.084 203.897 761.034 203.897 758.85V754.58H205.241V758.696C205.241 760.152 205.969 760.88 207.243 760.88C208.643 760.88 209.539 760.012 209.539 758.416V754.58ZM220.148 758.332C220.148 758.444 220.134 758.612 220.12 758.738H214.1C214.268 760.04 215.318 760.908 216.788 760.908C217.656 760.908 218.384 760.614 218.93 760.012L219.672 760.88C219 761.664 217.978 762.084 216.746 762.084C214.352 762.084 212.756 760.502 212.756 758.29C212.756 756.092 214.338 754.51 216.48 754.51C218.622 754.51 220.148 756.05 220.148 758.332ZM216.48 755.644C215.192 755.644 214.24 756.512 214.1 757.772H218.86C218.72 756.526 217.782 755.644 216.48 755.644ZM224.142 762.084C222.91 762.084 221.692 761.706 221.076 761.216L221.636 760.152C222.266 760.6 223.274 760.922 224.24 760.922C225.486 760.922 226.004 760.544 226.004 759.914C226.004 758.248 221.314 759.69 221.314 756.736C221.314 755.406 222.504 754.51 224.408 754.51C225.374 754.51 226.466 754.762 227.11 755.182L226.536 756.246C225.864 755.812 225.122 755.658 224.394 755.658C223.218 755.658 222.644 756.092 222.644 756.68C222.644 758.43 227.348 757.002 227.348 759.886C227.348 761.23 226.116 762.084 224.142 762.084ZM232.78 760.6L233.2 761.566C232.794 761.916 232.178 762.084 231.576 762.084C230.078 762.084 229.224 761.258 229.224 759.76V755.686H227.964V754.58H229.224V752.956H230.568V754.58H232.696V755.686H230.568V759.704C230.568 760.502 230.988 760.95 231.73 760.95C232.122 760.95 232.5 760.824 232.78 760.6Z" fill="white"/>
    <path d="M48.064 795.918C49.17 796.226 49.898 797.052 49.898 798.354C49.898 800.034 48.624 801 46.146 801H41.47V791.2H45.866C48.12 791.2 49.38 792.152 49.38 793.734C49.38 794.798 48.834 795.54 48.064 795.918ZM45.74 792.334H42.87V795.47H45.74C47.168 795.47 47.98 794.938 47.98 793.902C47.98 792.866 47.168 792.334 45.74 792.334ZM46.09 799.866C47.644 799.866 48.484 799.376 48.484 798.242C48.484 797.108 47.644 796.604 46.09 796.604H42.87V799.866H46.09ZM57.4417 793.58H58.7857V801H57.5117V799.88C56.9657 800.65 56.0417 801.084 54.9917 801.084C53.0737 801.084 51.7997 800.034 51.7997 797.85V793.58H53.1437V797.696C53.1437 799.152 53.8717 799.88 55.1457 799.88C56.5457 799.88 57.4417 799.012 57.4417 797.416V793.58ZM63.4723 801.084C62.2403 801.084 61.0223 800.706 60.4063 800.216L60.9663 799.152C61.5963 799.6 62.6043 799.922 63.5703 799.922C64.8163 799.922 65.3343 799.544 65.3343 798.914C65.3343 797.248 60.6443 798.69 60.6443 795.736C60.6443 794.406 61.8343 793.51 63.7383 793.51C64.7043 793.51 65.7963 793.762 66.4403 794.182L65.8663 795.246C65.1943 794.812 64.4523 794.658 63.7243 794.658C62.5483 794.658 61.9743 795.092 61.9743 795.68C61.9743 797.43 66.6783 796.002 66.6783 798.886C66.6783 800.23 65.4463 801.084 63.4723 801.084ZM69.03 792.152C68.512 792.152 68.12 791.774 68.12 791.284C68.12 790.794 68.512 790.402 69.03 790.402C69.548 790.402 69.94 790.78 69.94 791.256C69.94 791.76 69.562 792.152 69.03 792.152ZM68.358 801V793.58H69.702V801H68.358ZM76.2301 793.51C78.0361 793.51 79.3101 794.546 79.3101 796.73V801H77.9661V796.884C77.9661 795.428 77.2381 794.714 75.9641 794.714C74.5361 794.714 73.6121 795.568 73.6121 797.178V801H72.2681V793.58H73.5561V794.7C74.1021 793.944 75.0541 793.51 76.2301 793.51ZM88.5445 797.332C88.5445 797.444 88.5305 797.612 88.5165 797.738H82.4965C82.6645 799.04 83.7145 799.908 85.1845 799.908C86.0525 799.908 86.7805 799.614 87.3265 799.012L88.0685 799.88C87.3965 800.664 86.3745 801.084 85.1425 801.084C82.7485 801.084 81.1525 799.502 81.1525 797.29C81.1525 795.092 82.7345 793.51 84.8765 793.51C87.0185 793.51 88.5445 795.05 88.5445 797.332ZM84.8765 794.644C83.5885 794.644 82.6365 795.512 82.4965 796.772H87.2565C87.1165 795.526 86.1785 794.644 84.8765 794.644ZM92.5387 801.084C91.3067 801.084 90.0887 800.706 89.4727 800.216L90.0327 799.152C90.6627 799.6 91.6707 799.922 92.6367 799.922C93.8827 799.922 94.4007 799.544 94.4007 798.914C94.4007 797.248 89.7107 798.69 89.7107 795.736C89.7107 794.406 90.9007 793.51 92.8047 793.51C93.7707 793.51 94.8627 793.762 95.5067 794.182L94.9327 795.246C94.2607 794.812 93.5187 794.658 92.7907 794.658C91.6147 794.658 91.0407 795.092 91.0407 795.68C91.0407 797.43 95.7447 796.002 95.7447 798.886C95.7447 800.23 94.5127 801.084 92.5387 801.084ZM99.5524 801.084C98.3204 801.084 97.1024 800.706 96.4864 800.216L97.0464 799.152C97.6764 799.6 98.6844 799.922 99.6504 799.922C100.896 799.922 101.414 799.544 101.414 798.914C101.414 797.248 96.7244 798.69 96.7244 795.736C96.7244 794.406 97.9144 793.51 99.8184 793.51C100.784 793.51 101.876 793.762 102.52 794.182L101.946 795.246C101.274 794.812 100.532 794.658 99.8044 794.658C98.6284 794.658 98.0544 795.092 98.0544 795.68C98.0544 797.43 102.758 796.002 102.758 798.886C102.758 800.23 101.526 801.084 99.5524 801.084Z" fill="black"/>
    <path d="M105.356 664L103.956 660.76H96.9561L95.5761 664H92.8961L99.1961 650H101.756L108.076 664H105.356ZM97.8361 658.72H103.096L100.456 652.6L97.8361 658.72ZM117.479 649.16H119.979V664H117.579V662.62C116.739 663.64 115.499 664.14 114.039 664.14C110.939 664.14 108.639 661.98 108.639 658.66C108.639 655.34 110.939 653.2 114.039 653.2C115.419 653.2 116.639 653.66 117.479 654.64V649.16ZM114.339 662C116.139 662 117.519 660.7 117.519 658.66C117.519 656.62 116.139 655.32 114.339 655.32C112.539 655.32 111.159 656.62 111.159 658.66C111.159 660.7 112.539 662 114.339 662ZM142.257 653.2C144.837 653.2 146.637 654.66 146.637 657.88V664H144.137V658.2C144.137 656.3 143.257 655.38 141.737 655.38C140.097 655.38 138.957 656.46 138.957 658.58V664H136.457V658.2C136.457 656.3 135.577 655.38 134.057 655.38C132.397 655.38 131.277 656.46 131.277 658.58V664H128.777V653.32H131.157V654.68C131.957 653.72 133.197 653.2 134.657 653.2C136.217 653.2 137.517 653.78 138.257 654.98C139.117 653.88 140.557 653.2 142.257 653.2ZM153.911 653.2C156.991 653.2 158.771 654.66 158.771 657.74V664H156.411V662.7C155.811 663.62 154.651 664.14 153.051 664.14C150.611 664.14 149.071 662.8 149.071 660.94C149.071 659.16 150.271 657.76 153.511 657.76H156.271V657.6C156.271 656.14 155.391 655.28 153.611 655.28C152.411 655.28 151.171 655.68 150.371 656.34L149.391 654.52C150.531 653.64 152.191 653.2 153.911 653.2ZM153.571 662.32C154.791 662.32 155.851 661.76 156.271 660.66V659.42H153.691C151.991 659.42 151.531 660.06 151.531 660.84C151.531 661.74 152.291 662.32 153.571 662.32ZM168.04 653.2C170.6 653.2 172.5 654.66 172.5 657.88V664H170V658.2C170 656.3 169.06 655.38 167.46 655.38C165.68 655.38 164.48 656.46 164.48 658.6V664H161.98V653.32H164.36V654.7C165.18 653.72 166.48 653.2 168.04 653.2ZM179.751 653.2C182.831 653.2 184.611 654.66 184.611 657.74V664H182.251V662.7C181.651 663.62 180.491 664.14 178.891 664.14C176.451 664.14 174.911 662.8 174.911 660.94C174.911 659.16 176.111 657.76 179.351 657.76H182.111V657.6C182.111 656.14 181.231 655.28 179.451 655.28C178.251 655.28 177.011 655.68 176.211 656.34L175.231 654.52C176.371 653.64 178.031 653.2 179.751 653.2ZM179.411 662.32C180.631 662.32 181.691 661.76 182.111 660.66V659.42H179.531C177.831 659.42 177.371 660.06 177.371 660.84C177.371 661.74 178.131 662.32 179.411 662.32ZM196.137 653.32H198.517V662.38C198.517 666.26 196.497 668.02 192.757 668.02C190.757 668.02 188.777 667.5 187.557 666.5L188.677 664.62C189.617 665.4 191.137 665.9 192.617 665.9C194.977 665.9 196.017 664.82 196.017 662.66V662.1C195.137 663.06 193.877 663.52 192.437 663.52C189.377 663.52 187.037 661.44 187.037 658.34C187.037 655.24 189.377 653.2 192.437 653.2C193.937 653.2 195.257 653.68 196.137 654.74V653.32ZM192.817 661.4C194.697 661.4 196.057 660.16 196.057 658.34C196.057 656.54 194.697 655.32 192.817 655.32C190.917 655.32 189.557 656.54 189.557 658.34C189.557 660.16 190.917 661.4 192.817 661.4ZM211.844 658.72C211.844 658.92 211.824 659.22 211.804 659.46H203.424C203.724 661.02 205.024 662.02 206.884 662.02C208.084 662.02 209.024 661.64 209.784 660.86L211.124 662.4C210.164 663.54 208.664 664.14 206.824 664.14C203.244 664.14 200.924 661.84 200.924 658.66C200.924 655.48 203.264 653.2 206.444 653.2C209.564 653.2 211.844 655.38 211.844 658.72ZM206.444 655.2C204.824 655.2 203.644 656.24 203.404 657.8H209.464C209.264 656.26 208.084 655.2 206.444 655.2ZM216.625 654.88C217.345 653.76 218.645 653.2 220.425 653.2V655.58C220.205 655.54 220.025 655.52 219.845 655.52C217.945 655.52 216.745 656.64 216.745 658.82V664H214.245V653.32H216.625V654.88Z" fill="black"/>
    <path d="M17.7071 185.293C17.3166 184.902 16.6834 184.902 16.2929 185.293L9.92895 191.657C9.53842 192.047 9.53842 192.681 9.92895 193.071C10.3195 193.462 10.9526 193.462 11.3432 193.071L17 187.414L22.6569 193.071C23.0474 193.462 23.6806 193.462 24.0711 193.071C24.4616 192.681 24.4616 192.047 24.0711 191.657L17.7071 185.293ZM18 518L18 186L16 186L16 518L18 518Z" fill="black"/>
    <path d="M297.707 185.293C297.317 184.902 296.683 184.902 296.293 185.293L289.929 191.657C289.538 192.047 289.538 192.681 289.929 193.071C290.319 193.462 290.953 193.462 291.343 193.071L297 187.414L302.657 193.071C303.047 193.462 303.681 193.462 304.071 193.071C304.462 192.681 304.462 192.047 304.071 191.657L297.707 185.293ZM298 526L298 186L296 186L296 526H298Z" fill="black"/>
    <path d="M297 586L297 638" stroke="black" stroke-width="2"/>
    <path d="M17 596L17 638" stroke="black" stroke-width="2"/>
    <path d="M94.2929 237.707C94.6834 238.098 95.3166 238.098 95.7071 237.707L102.071 231.343C102.462 230.953 102.462 230.319 102.071 229.929C101.681 229.538 101.047 229.538 100.657 229.929L95 235.586L89.3431 229.929C88.9526 229.538 88.3195 229.538 87.9289 229.929C87.5384 230.319 87.5384 230.953 87.9289 231.343L94.2929 237.707ZM226 131L226 190.943H228L228 131L226 131ZM207 209.943H115V211.943H207V209.943ZM94 230.943V237H96V230.943H94ZM115 209.943C103.402 209.943 94 219.345 94 230.943H96C96 220.449 104.507 211.943 115 211.943V209.943ZM226 190.943C226 201.436 217.493 209.943 207 209.943V211.943C218.598 211.943 228 202.541 228 190.943H226Z" fill="black"/>
    <path d="M168.293 412.707C168.683 413.098 169.317 413.098 169.707 412.707L176.071 406.343C176.462 405.953 176.462 405.319 176.071 404.929C175.681 404.538 175.047 404.538 174.657 404.929L169 410.586L163.343 404.929C162.953 404.538 162.319 404.538 161.929 404.929C161.538 405.319 161.538 405.953 161.929 406.343L168.293 412.707ZM227 365H226H227ZM226 306L226 365H228L228 306L226 306ZM207 384H189V386H207V384ZM168 405V412H170V405H168ZM189 384C177.402 384 168 393.402 168 405H170C170 394.507 178.507 386 189 386V384ZM226 365C226 375.493 217.493 384 207 384V386C218.598 386 228 376.598 228 365H226Z" fill="black"/>
    <path d="M156.293 491.293C156.683 490.902 157.317 490.902 157.707 491.293L164.071 497.657C164.462 498.047 164.462 498.681 164.071 499.071C163.681 499.462 163.047 499.462 162.657 499.071L157 493.414L151.343 499.071C150.953 499.462 150.319 499.462 149.929 499.071C149.538 498.681 149.538 498.047 149.929 497.657L156.293 491.293ZM254 636H253H254ZM253 729L253 636H255L255 729L253 729ZM234 617H177V615H234V617ZM156 596V492H158V596H156ZM177 617C165.402 617 156 607.598 156 596H158C158 606.493 166.507 615 177 615V617ZM253 636C253 625.507 244.493 617 234 617V615C245.598 615 255 624.402 255 636H253Z" fill="black"/>
    <path d="M145.707 412.707C145.317 413.098 144.683 413.098 144.293 412.707L137.929 406.343C137.538 405.953 137.538 405.319 137.929 404.929C138.319 404.538 138.953 404.538 139.343 404.929L145 410.586L150.657 404.929C151.047 404.538 151.681 404.538 152.071 404.929C152.462 405.319 152.462 405.953 152.071 406.343L145.707 412.707ZM95 365L94 365L95 365ZM96 357L96 365L94 365L94 357L96 357ZM115 384H125V386H115V384ZM146 405V412H144V405H146ZM125 384C136.598 384 146 393.402 146 405H144C144 394.507 135.493 386 125 386V384ZM96 365C96 375.493 104.507 384 115 384V386C103.402 386 94 376.598 94 365L96 365Z" fill="black"/>
    <rect x="2" y="513" width="142" height="88" stroke="black" stroke-width="2"/>
    <path d="M12.316 535V525.2H16.6C19.778 525.2 21.948 527.16 21.948 530.1C21.948 533.04 19.778 535 16.6 535H12.316ZM14.136 533.46H16.516C18.7 533.46 20.114 532.13 20.114 530.1C20.114 528.07 18.7 526.74 16.516 526.74H14.136V533.46ZM30.7424 531.304C30.7424 531.444 30.7284 531.654 30.7144 531.822H24.8484C25.0584 532.914 25.9684 533.614 27.2704 533.614C28.1104 533.614 28.7684 533.348 29.3004 532.802L30.2384 533.88C29.5664 534.678 28.5164 535.098 27.2284 535.098C24.7224 535.098 23.0984 533.488 23.0984 531.262C23.0984 529.036 24.7364 527.44 26.9624 527.44C29.1464 527.44 30.7424 528.966 30.7424 531.304ZM26.9624 528.84C25.8284 528.84 25.0024 529.568 24.8344 530.66H29.0764C28.9364 529.582 28.1104 528.84 26.9624 528.84ZM35.8534 535.098C33.4874 535.098 31.8074 533.502 31.8074 531.262C31.8074 529.022 33.4874 527.44 35.8534 527.44C37.3094 527.44 38.4714 528.042 39.0454 529.176L37.7014 529.96C37.2534 529.246 36.5814 528.924 35.8394 528.924C34.5514 528.924 33.5714 529.82 33.5714 531.262C33.5714 532.718 34.5514 533.6 35.8394 533.6C36.5814 533.6 37.2534 533.278 37.7014 532.564L39.0454 533.348C38.4714 534.468 37.3094 535.098 35.8534 535.098ZM47.4768 531.304C47.4768 531.444 47.4628 531.654 47.4488 531.822H41.5828C41.7928 532.914 42.7028 533.614 44.0048 533.614C44.8448 533.614 45.5028 533.348 46.0348 532.802L46.9728 533.88C46.3008 534.678 45.2508 535.098 43.9628 535.098C41.4568 535.098 39.8328 533.488 39.8328 531.262C39.8328 529.036 41.4708 527.44 43.6968 527.44C45.8808 527.44 47.4768 528.966 47.4768 531.304ZM43.6968 528.84C42.5628 528.84 41.7368 529.568 41.5688 530.66H45.8108C45.6708 529.582 44.8448 528.84 43.6968 528.84ZM53.3998 527.44C55.1918 527.44 56.5218 528.462 56.5218 530.716V535H54.7718V530.94C54.7718 529.61 54.1138 528.966 52.9938 528.966C51.7478 528.966 50.9078 529.722 50.9078 531.22V535H49.1578V527.524H50.8238V528.49C51.3978 527.804 52.3078 527.44 53.3998 527.44ZM62.7458 533.348L63.2358 534.594C62.8158 534.93 62.1858 535.098 61.5558 535.098C59.9178 535.098 58.9798 534.23 58.9798 532.578V528.98H57.7478V527.58H58.9798V525.872H60.7298V527.58H62.7318V528.98H60.7298V532.536C60.7298 533.264 61.0938 533.656 61.7658 533.656C62.1298 533.656 62.4798 533.558 62.7458 533.348ZM66.3413 528.616C66.8453 527.832 67.7553 527.44 69.0013 527.44V529.106C68.8473 529.078 68.7213 529.064 68.5953 529.064C67.2653 529.064 66.4253 529.848 66.4253 531.374V535H64.6753V527.524H66.3413V528.616ZM73.3009 527.44C75.4569 527.44 76.7029 528.462 76.7029 530.618V535H75.0509V534.09C74.6309 534.734 73.8189 535.098 72.6989 535.098C70.9909 535.098 69.9129 534.16 69.9129 532.858C69.9129 531.612 70.7529 530.632 73.0209 530.632H74.9529V530.52C74.9529 529.498 74.3369 528.896 73.0909 528.896C72.2509 528.896 71.3829 529.176 70.8229 529.638L70.1369 528.364C70.9349 527.748 72.0969 527.44 73.3009 527.44ZM73.0629 533.824C73.9169 533.824 74.6589 533.432 74.9529 532.662V531.794H73.1469C71.9569 531.794 71.6349 532.242 71.6349 532.788C71.6349 533.418 72.1669 533.824 73.0629 533.824ZM78.9488 535V524.612H80.6988V535H78.9488ZM83.8777 526.292C83.2337 526.292 82.7577 525.83 82.7577 525.242C82.7577 524.654 83.2337 524.192 83.8777 524.192C84.5217 524.192 84.9977 524.626 84.9977 525.2C84.9977 525.816 84.5357 526.292 83.8777 526.292ZM82.9957 535V527.524H84.7457V535H82.9957ZM88.6525 533.6H92.8805V535H86.4265V533.894L90.5285 528.924H86.5105V527.524H92.7685V528.63L88.6525 533.6ZM101.412 531.304C101.412 531.444 101.398 531.654 101.384 531.822H95.5183C95.7283 532.914 96.6383 533.614 97.9403 533.614C98.7803 533.614 99.4383 533.348 99.9703 532.802L100.908 533.88C100.236 534.678 99.1863 535.098 97.8983 535.098C95.3923 535.098 93.7683 533.488 93.7683 531.262C93.7683 529.036 95.4063 527.44 97.6323 527.44C99.8163 527.44 101.412 528.966 101.412 531.304ZM97.6323 528.84C96.4983 528.84 95.6723 529.568 95.5043 530.66H99.7463C99.6063 529.582 98.7803 528.84 97.6323 528.84ZM108.665 524.612H110.415V535H108.735V534.034C108.147 534.748 107.279 535.098 106.257 535.098C104.087 535.098 102.477 533.586 102.477 531.262C102.477 528.938 104.087 527.44 106.257 527.44C107.223 527.44 108.077 527.762 108.665 528.448V524.612ZM106.467 533.6C107.727 533.6 108.693 532.69 108.693 531.262C108.693 529.834 107.727 528.924 106.467 528.924C105.207 528.924 104.241 529.834 104.241 531.262C104.241 532.69 105.207 533.6 106.467 533.6ZM15.354 552.14C13.828 552.14 12.302 551.664 11.49 550.964L12.12 549.55C12.904 550.18 14.15 550.628 15.354 550.628C16.88 550.628 17.524 550.082 17.524 549.354C17.524 547.24 11.7 548.626 11.7 544.986C11.7 543.404 12.96 542.06 15.648 542.06C16.824 542.06 18.056 542.368 18.91 542.928L18.336 544.342C17.454 543.824 16.488 543.572 15.634 543.572C14.122 543.572 13.506 544.16 13.506 544.902C13.506 546.988 19.316 545.63 19.316 549.228C19.316 550.796 18.042 552.14 15.354 552.14ZM24.9567 550.348L25.4467 551.594C25.0267 551.93 24.3967 552.098 23.7667 552.098C22.1287 552.098 21.1907 551.23 21.1907 549.578V545.98H19.9587V544.58H21.1907V542.872H22.9407V544.58H24.9427V545.98H22.9407V549.536C22.9407 550.264 23.3047 550.656 23.9767 550.656C24.3407 550.656 24.6907 550.558 24.9567 550.348ZM30.0002 552.098C27.7042 552.098 26.0242 550.502 26.0242 548.262C26.0242 546.022 27.7042 544.44 30.0002 544.44C32.3242 544.44 33.9902 546.022 33.9902 548.262C33.9902 550.502 32.3242 552.098 30.0002 552.098ZM30.0002 550.6C31.2742 550.6 32.2262 549.69 32.2262 548.262C32.2262 546.834 31.2742 545.924 30.0002 545.924C28.7402 545.924 27.7882 546.834 27.7882 548.262C27.7882 549.69 28.7402 550.6 30.0002 550.6ZM37.3296 545.616C37.8336 544.832 38.7436 544.44 39.9896 544.44V546.106C39.8356 546.078 39.7096 546.064 39.5836 546.064C38.2536 546.064 37.4136 546.848 37.4136 548.374V552H35.6636V544.524H37.3296V545.616ZM44.2892 544.44C46.4452 544.44 47.6912 545.462 47.6912 547.618V552H46.0392V551.09C45.6192 551.734 44.8072 552.098 43.6872 552.098C41.9792 552.098 40.9012 551.16 40.9012 549.858C40.9012 548.612 41.7412 547.632 44.0092 547.632H45.9412V547.52C45.9412 546.498 45.3252 545.896 44.0792 545.896C43.2392 545.896 42.3712 546.176 41.8112 546.638L41.1252 545.364C41.9232 544.748 43.0852 544.44 44.2892 544.44ZM44.0512 550.824C44.9052 550.824 45.6472 550.432 45.9412 549.662V548.794H44.1352C42.9452 548.794 42.6232 549.242 42.6232 549.788C42.6232 550.418 43.1552 550.824 44.0512 550.824ZM55.7594 544.524H57.4254V550.866C57.4254 553.582 56.0114 554.814 53.3934 554.814C51.9934 554.814 50.6074 554.45 49.7534 553.75L50.5374 552.434C51.1954 552.98 52.2594 553.33 53.2954 553.33C54.9474 553.33 55.6754 552.574 55.6754 551.062V550.67C55.0594 551.342 54.1774 551.664 53.1694 551.664C51.0274 551.664 49.3894 550.208 49.3894 548.038C49.3894 545.868 51.0274 544.44 53.1694 544.44C54.2194 544.44 55.1434 544.776 55.7594 545.518V544.524ZM53.4354 550.18C54.7514 550.18 55.7034 549.312 55.7034 548.038C55.7034 546.778 54.7514 545.924 53.4354 545.924C52.1054 545.924 51.1534 546.778 51.1534 548.038C51.1534 549.312 52.1054 550.18 53.4354 550.18ZM66.7541 548.304C66.7541 548.444 66.7401 548.654 66.7261 548.822H60.8601C61.0701 549.914 61.9801 550.614 63.2821 550.614C64.1221 550.614 64.7801 550.348 65.3121 549.802L66.2501 550.88C65.5781 551.678 64.5281 552.098 63.2401 552.098C60.7341 552.098 59.1101 550.488 59.1101 548.262C59.1101 546.036 60.7481 544.44 62.9741 544.44C65.1581 544.44 66.7541 545.966 66.7541 548.304ZM62.9741 545.84C61.8401 545.84 61.0141 546.568 60.8461 547.66H65.0881C64.9481 546.582 64.1221 545.84 62.9741 545.84ZM74.0403 554.716C72.9483 553.022 72.3323 550.74 72.3323 548.164C72.3323 545.588 72.9483 543.278 74.0403 541.612H75.7063C74.5443 543.656 74.0543 545.77 74.0543 548.164C74.0543 550.558 74.5443 552.672 75.7063 554.716H74.0403ZM77.3258 552V542.2H79.1458V552H77.3258ZM85.8285 542.2C88.4045 542.2 90.0005 543.516 90.0005 545.686C90.0005 547.842 88.4045 549.172 85.8285 549.172H83.6165V552H81.7965V542.2H85.8285ZM85.7445 547.632C87.3405 547.632 88.1665 546.918 88.1665 545.686C88.1665 544.454 87.3405 543.74 85.7445 543.74H83.6165V547.632H85.7445ZM98.972 543.726H93.638V546.708H98.37V548.248H93.638V552H91.818V542.2H98.972V543.726ZM103.729 552.14C102.203 552.14 100.677 551.664 99.865 550.964L100.495 549.55C101.279 550.18 102.525 550.628 103.729 550.628C105.255 550.628 105.899 550.082 105.899 549.354C105.899 547.24 100.075 548.626 100.075 544.986C100.075 543.404 101.335 542.06 104.023 542.06C105.199 542.06 106.431 542.368 107.285 542.928L106.711 544.342C105.829 543.824 104.863 543.572 104.009 543.572C102.497 543.572 101.881 544.16 101.881 544.902C101.881 546.988 107.691 545.63 107.691 549.228C107.691 550.796 106.417 552.14 103.729 552.14ZM110.154 554.716H108.488C109.65 552.672 110.154 550.558 110.154 548.164C110.154 545.77 109.65 543.656 108.488 541.612H110.154C111.26 543.278 111.862 545.588 111.862 548.164C111.862 550.74 111.26 553.022 110.154 554.716Z" fill="black"/>
    <path d="M19.918 572L18.742 569.382H13.282L12.106 572H11.028L15.508 562.2H16.53L21.01 572H19.918ZM13.66 568.542H18.364L16.012 563.278L13.66 568.542ZM28.0788 561.612H29.0728V572H28.1208V570.544C27.5188 571.538 26.4968 572.07 25.2788 572.07C23.1788 572.07 21.6108 570.544 21.6108 568.318C21.6108 566.092 23.1788 564.58 25.2788 564.58C26.4548 564.58 27.4628 565.084 28.0788 566.036V561.612ZM25.3628 571.188C26.9168 571.188 28.0928 570.04 28.0928 568.318C28.0928 566.596 26.9168 565.448 25.3628 565.448C23.7948 565.448 22.6188 566.596 22.6188 568.318C22.6188 570.04 23.7948 571.188 25.3628 571.188ZM37.4791 572.07C36.2611 572.07 35.0851 571.678 34.4831 571.16L34.9311 570.376C35.5191 570.838 36.5131 571.202 37.5491 571.202C38.9491 571.202 39.5231 570.726 39.5231 569.998C39.5231 568.08 34.7491 569.592 34.7491 566.68C34.7491 565.476 35.7851 564.58 37.6611 564.58C38.6131 564.58 39.6491 564.846 40.2651 565.266L39.8311 566.064C39.1871 565.616 38.4171 565.434 37.6611 565.434C36.3311 565.434 35.7431 565.952 35.7431 566.652C35.7431 568.64 40.5171 567.142 40.5171 569.97C40.5171 571.244 39.3971 572.07 37.4791 572.07ZM46.1068 564.58C47.8988 564.58 49.1308 565.616 49.1308 567.73V572H48.1368V567.828C48.1368 566.274 47.3248 565.476 45.9248 565.476C44.3428 565.476 43.3488 566.456 43.3488 568.136V572H42.3548V561.612H43.3488V565.924C43.8948 565.07 44.8608 564.58 46.1068 564.58ZM54.8667 572.07C52.7107 572.07 51.1147 570.502 51.1147 568.318C51.1147 566.134 52.7107 564.58 54.8667 564.58C57.0227 564.58 58.6047 566.134 58.6047 568.318C58.6047 570.502 57.0227 572.07 54.8667 572.07ZM54.8667 571.188C56.4347 571.188 57.5967 570.04 57.5967 568.318C57.5967 566.596 56.4347 565.448 54.8667 565.448C53.2987 565.448 52.1227 566.596 52.1227 568.318C52.1227 570.04 53.2987 571.188 54.8667 571.188ZM70.327 564.636H71.237L68.451 572H67.513L65.189 565.966L62.865 572H61.927L59.155 564.636H60.107L62.417 570.894L64.783 564.636H65.637L67.989 570.894L70.327 564.636ZM76.4857 564.58C78.2777 564.58 79.5097 565.616 79.5097 567.73V572H78.5157V567.828C78.5157 566.274 77.7037 565.476 76.3037 565.476C74.7217 565.476 73.7277 566.456 73.7277 568.136V572H72.7337V564.636H73.6857V565.994C74.2177 565.098 75.2117 564.58 76.4857 564.58ZM15.914 587.838L16.264 588.552C15.872 588.902 15.284 589.07 14.71 589.07C13.324 589.07 12.554 588.286 12.554 586.928V582.476H11.238V581.636H12.554V580.026H13.548V581.636H15.788V582.476H13.548V586.872C13.548 587.74 13.996 588.216 14.822 588.216C15.228 588.216 15.634 588.09 15.914 587.838ZM20.8237 589.07C18.6677 589.07 17.0717 587.502 17.0717 585.318C17.0717 583.134 18.6677 581.58 20.8237 581.58C22.9797 581.58 24.5617 583.134 24.5617 585.318C24.5617 587.502 22.9797 589.07 20.8237 589.07ZM20.8237 588.188C22.3917 588.188 23.5537 587.04 23.5537 585.318C23.5537 583.596 22.3917 582.448 20.8237 582.448C19.2557 582.448 18.0797 583.596 18.0797 585.318C18.0797 587.04 19.2557 588.188 20.8237 588.188ZM33.3071 589.07C31.1091 589.07 29.5131 587.516 29.5131 585.318C29.5131 583.12 31.1091 581.58 33.3071 581.58C34.5531 581.58 35.6031 582.07 36.1911 583.036L35.4491 583.54C34.9451 582.798 34.1611 582.448 33.3071 582.448C31.6971 582.448 30.5211 583.596 30.5211 585.318C30.5211 587.054 31.6971 588.188 33.3071 588.188C34.1611 588.188 34.9451 587.852 35.4491 587.11L36.1911 587.614C35.6031 588.566 34.5531 589.07 33.3071 589.07ZM43.7858 581.636H44.7798V589H43.8278V587.656C43.3098 588.552 42.3578 589.07 41.1818 589.07C39.3058 589.07 38.0738 588.02 38.0738 585.906V581.636H39.0678V585.808C39.0678 587.376 39.8798 588.174 41.2798 588.174C42.8198 588.174 43.7858 587.18 43.7858 585.5V581.636ZM49.5377 589.07C48.3197 589.07 47.1437 588.678 46.5417 588.16L46.9897 587.376C47.5777 587.838 48.5717 588.202 49.6077 588.202C51.0077 588.202 51.5817 587.726 51.5817 586.998C51.5817 585.08 46.8077 586.592 46.8077 583.68C46.8077 582.476 47.8437 581.58 49.7197 581.58C50.6717 581.58 51.7077 581.846 52.3237 582.266L51.8897 583.064C51.2457 582.616 50.4757 582.434 49.7197 582.434C48.3897 582.434 47.8017 582.952 47.8017 583.652C47.8017 585.64 52.5757 584.142 52.5757 586.97C52.5757 588.244 51.4557 589.07 49.5377 589.07ZM57.9413 587.838L58.2913 588.552C57.8993 588.902 57.3113 589.07 56.7373 589.07C55.3513 589.07 54.5813 588.286 54.5813 586.928V582.476H53.2653V581.636H54.5813V580.026H55.5753V581.636H57.8153V582.476H55.5753V586.872C55.5753 587.74 56.0233 588.216 56.8493 588.216C57.2553 588.216 57.6613 588.09 57.9413 587.838ZM62.8511 589.07C60.6951 589.07 59.0991 587.502 59.0991 585.318C59.0991 583.134 60.6951 581.58 62.8511 581.58C65.0071 581.58 66.5891 583.134 66.5891 585.318C66.5891 587.502 65.0071 589.07 62.8511 589.07ZM62.8511 588.188C64.4191 588.188 65.5811 587.04 65.5811 585.318C65.5811 583.596 64.4191 582.448 62.8511 582.448C61.2831 582.448 60.1071 583.596 60.1071 585.318C60.1071 587.04 61.2831 588.188 62.8511 588.188ZM77.8024 581.58C79.5944 581.58 80.7704 582.616 80.7704 584.73V589H79.7764V584.828C79.7764 583.274 78.9924 582.476 77.6624 582.476C76.1504 582.476 75.1984 583.456 75.1984 585.136V589H74.2044V584.828C74.2044 583.274 73.4204 582.476 72.0764 582.476C70.5784 582.476 69.6124 583.456 69.6124 585.136V589H68.6184V581.636H69.5704V582.98C70.0884 582.098 71.0404 581.58 72.2724 581.58C73.4904 581.58 74.4424 582.098 74.8904 583.134C75.4224 582.182 76.4724 581.58 77.8024 581.58ZM89.9194 585.318C89.9194 585.402 89.9054 585.514 89.9054 585.626H83.7454C83.8574 587.166 85.0334 588.188 86.6434 588.188C87.5394 588.188 88.3374 587.866 88.8974 587.222L89.4574 587.866C88.7994 588.65 87.7774 589.07 86.6154 589.07C84.3194 589.07 82.7514 587.502 82.7514 585.318C82.7514 583.134 84.2774 581.58 86.3494 581.58C88.4214 581.58 89.9194 583.106 89.9194 585.318ZM86.3494 582.434C84.9214 582.434 83.8714 583.442 83.7454 584.884H88.9674C88.8414 583.442 87.7914 582.434 86.3494 582.434ZM92.8946 583.078C93.3566 582.098 94.2946 581.58 95.6526 581.58V582.546C95.5686 582.546 95.4846 582.532 95.4146 582.532C93.8746 582.532 92.9366 583.512 92.9366 585.248V589H91.9426V581.636H92.8946V583.078Z" fill="black"/>
    <rect x="170" y="521" width="143" height="72" stroke="black" stroke-width="2"/>
    <path d="M199.26 537.904C200.31 538.24 201.024 539.066 201.024 540.34C201.024 542.02 199.708 543 197.188 543H192.316V533.2H196.908C199.26 533.2 200.52 534.194 200.52 535.748C200.52 536.756 200.016 537.498 199.26 537.904ZM196.712 534.628H194.136V537.33H196.712C197.972 537.33 198.686 536.882 198.686 535.986C198.686 535.076 197.972 534.628 196.712 534.628ZM197.076 541.572C198.448 541.572 199.19 541.138 199.19 540.158C199.19 539.178 198.448 538.744 197.076 538.744H194.136V541.572H197.076ZM202.798 543V532.612H204.548V543H202.798ZM210.205 543.098C207.909 543.098 206.229 541.502 206.229 539.262C206.229 537.022 207.909 535.44 210.205 535.44C212.529 535.44 214.195 537.022 214.195 539.262C214.195 541.502 212.529 543.098 210.205 543.098ZM210.205 541.6C211.479 541.6 212.431 540.69 212.431 539.262C212.431 537.834 211.479 536.924 210.205 536.924C208.945 536.924 207.993 537.834 207.993 539.262C207.993 540.69 208.945 541.6 210.205 541.6ZM219.299 543.098C216.933 543.098 215.253 541.502 215.253 539.262C215.253 537.022 216.933 535.44 219.299 535.44C220.755 535.44 221.917 536.042 222.491 537.176L221.147 537.96C220.699 537.246 220.027 536.924 219.285 536.924C217.997 536.924 217.017 537.82 217.017 539.262C217.017 540.718 217.997 541.6 219.285 541.6C220.027 541.6 220.699 541.278 221.147 540.564L222.491 541.348C221.917 542.468 220.755 543.098 219.299 543.098ZM229.577 543L226.987 539.794L225.685 541.026V543H223.935V532.612H225.685V538.884L229.311 535.524H231.411L228.289 538.66L231.705 543H229.577ZM235.951 543.098C233.585 543.098 231.905 541.502 231.905 539.262C231.905 537.022 233.585 535.44 235.951 535.44C237.407 535.44 238.569 536.042 239.143 537.176L237.799 537.96C237.351 537.246 236.679 536.924 235.937 536.924C234.649 536.924 233.669 537.82 233.669 539.262C233.669 540.718 234.649 541.6 235.937 541.6C236.679 541.6 237.351 541.278 237.799 540.564L239.143 541.348C238.569 542.468 237.407 543.098 235.951 543.098ZM244.829 535.44C246.621 535.44 247.951 536.462 247.951 538.716V543H246.201V538.94C246.201 537.61 245.543 536.966 244.423 536.966C243.177 536.966 242.337 537.722 242.337 539.22V543H240.587V532.612H242.337V536.392C242.911 535.776 243.793 535.44 244.829 535.44ZM253.027 535.44C255.183 535.44 256.429 536.462 256.429 538.618V543H254.777V542.09C254.357 542.734 253.545 543.098 252.425 543.098C250.717 543.098 249.639 542.16 249.639 540.858C249.639 539.612 250.479 538.632 252.747 538.632H254.679V538.52C254.679 537.498 254.063 536.896 252.817 536.896C251.977 536.896 251.109 537.176 250.549 537.638L249.863 536.364C250.661 535.748 251.823 535.44 253.027 535.44ZM252.789 541.824C253.643 541.824 254.385 541.432 254.679 540.662V539.794H252.873C251.683 539.794 251.361 540.242 251.361 540.788C251.361 541.418 251.893 541.824 252.789 541.824ZM259.557 534.292C258.913 534.292 258.437 533.83 258.437 533.242C258.437 532.654 258.913 532.192 259.557 532.192C260.201 532.192 260.677 532.626 260.677 533.2C260.677 533.816 260.215 534.292 259.557 534.292ZM258.675 543V535.524H260.425V543H258.675ZM266.964 535.44C268.756 535.44 270.086 536.462 270.086 538.716V543H268.336V538.94C268.336 537.61 267.678 536.966 266.558 536.966C265.312 536.966 264.472 537.722 264.472 539.22V543H262.722V535.524H264.388V536.49C264.962 535.804 265.872 535.44 266.964 535.44Z" fill="black"/>
    <path d="M196.264 553.2C198.756 553.2 200.268 554.46 200.268 556.56C200.268 558.646 198.756 559.906 196.264 559.906H193.632V563H192.596V553.2H196.264ZM196.236 558.996C198.196 558.996 199.232 558.1 199.232 556.56C199.232 554.992 198.196 554.096 196.236 554.096H193.632V558.996H196.236ZM204.806 555.58C206.71 555.58 207.788 556.532 207.788 558.436V563H206.836V561.852C206.388 562.608 205.52 563.07 204.302 563.07C202.636 563.07 201.614 562.202 201.614 560.928C201.614 559.794 202.342 558.842 204.456 558.842H206.794V558.394C206.794 557.134 206.08 556.448 204.708 556.448C203.756 556.448 202.86 556.784 202.258 557.316L201.81 556.574C202.552 555.944 203.644 555.58 204.806 555.58ZM204.456 562.286C205.576 562.286 206.402 561.754 206.794 560.788V559.584H204.484C203.056 559.584 202.594 560.144 202.594 560.9C202.594 561.754 203.28 562.286 204.456 562.286ZM215.559 555.636H216.539L212.857 563.882C212.241 565.324 211.457 565.786 210.407 565.786C209.721 565.786 209.063 565.562 208.615 565.114L209.077 564.372C209.441 564.736 209.889 564.932 210.421 564.932C211.079 564.932 211.527 564.624 211.947 563.7L212.269 562.986L208.979 555.636H210.015L212.787 561.894L215.559 555.636ZM227.123 555.58C228.915 555.58 230.091 556.616 230.091 558.73V563H229.097V558.828C229.097 557.274 228.313 556.476 226.983 556.476C225.471 556.476 224.519 557.456 224.519 559.136V563H223.525V558.828C223.525 557.274 222.741 556.476 221.397 556.476C219.899 556.476 218.933 557.456 218.933 559.136V563H217.939V555.636H218.891V556.98C219.409 556.098 220.361 555.58 221.593 555.58C222.811 555.58 223.763 556.098 224.211 557.134C224.743 556.182 225.793 555.58 227.123 555.58ZM239.24 559.318C239.24 559.402 239.226 559.514 239.226 559.626H233.066C233.178 561.166 234.354 562.188 235.964 562.188C236.86 562.188 237.658 561.866 238.218 561.222L238.778 561.866C238.12 562.65 237.098 563.07 235.936 563.07C233.64 563.07 232.072 561.502 232.072 559.318C232.072 557.134 233.598 555.58 235.67 555.58C237.742 555.58 239.24 557.106 239.24 559.318ZM235.67 556.434C234.242 556.434 233.192 557.442 233.066 558.884H238.288C238.162 557.442 237.112 556.434 235.67 556.434ZM245.015 555.58C246.807 555.58 248.039 556.616 248.039 558.73V563H247.045V558.828C247.045 557.274 246.233 556.476 244.833 556.476C243.251 556.476 242.257 557.456 242.257 559.136V563H241.263V555.636H242.215V556.994C242.747 556.098 243.741 555.58 245.015 555.58ZM254.266 561.838L254.616 562.552C254.224 562.902 253.636 563.07 253.062 563.07C251.676 563.07 250.906 562.286 250.906 560.928V556.476H249.59V555.636H250.906V554.026H251.9V555.636H254.14V556.476H251.9V560.872C251.9 561.74 252.348 562.216 253.174 562.216C253.58 562.216 253.986 562.09 254.266 561.838ZM261.783 565.716C260.747 564.022 260.159 561.74 260.159 559.164C260.159 556.588 260.747 554.278 261.783 552.612H262.735C261.629 554.53 261.139 556.672 261.139 559.164C261.139 561.656 261.629 563.798 262.735 565.716H261.783ZM268.225 561.838L268.575 562.552C268.183 562.902 267.595 563.07 267.021 563.07C265.635 563.07 264.865 562.286 264.865 560.928V556.476H263.549V555.636H264.865V554.026H265.859V555.636H268.099V556.476H265.859V560.872C265.859 561.74 266.307 562.216 267.133 562.216C267.539 562.216 267.945 562.09 268.225 561.838ZM273.134 563.07C270.978 563.07 269.382 561.502 269.382 559.318C269.382 557.134 270.978 555.58 273.134 555.58C275.29 555.58 276.872 557.134 276.872 559.318C276.872 561.502 275.29 563.07 273.134 563.07ZM273.134 562.188C274.702 562.188 275.864 561.04 275.864 559.318C275.864 557.596 274.702 556.448 273.134 556.448C271.566 556.448 270.39 557.596 270.39 559.318C270.39 561.04 271.566 562.188 273.134 562.188ZM284.6 563L281.632 559.304L279.896 560.9V563H278.902V552.612H279.896V559.654L284.292 555.636H285.524L282.374 558.646L285.818 563H284.6ZM293.435 559.318C293.435 559.402 293.421 559.514 293.421 559.626H287.261C287.373 561.166 288.549 562.188 290.159 562.188C291.055 562.188 291.853 561.866 292.413 561.222L292.973 561.866C292.315 562.65 291.293 563.07 290.131 563.07C287.835 563.07 286.267 561.502 286.267 559.318C286.267 557.134 287.793 555.58 289.865 555.58C291.937 555.58 293.435 557.106 293.435 559.318ZM289.865 556.434C288.437 556.434 287.387 557.442 287.261 558.884H292.483C292.357 557.442 291.307 556.434 289.865 556.434ZM299.21 555.58C301.002 555.58 302.234 556.616 302.234 558.73V563H301.24V558.828C301.24 557.274 300.428 556.476 299.028 556.476C297.446 556.476 296.452 557.456 296.452 559.136V563H295.458V555.636H296.41V556.994C296.942 556.098 297.936 555.58 299.21 555.58ZM195.914 578.838L196.264 579.552C195.872 579.902 195.284 580.07 194.71 580.07C193.324 580.07 192.554 579.286 192.554 577.928V573.476H191.238V572.636H192.554V571.026H193.548V572.636H195.788V573.476H193.548V577.872C193.548 578.74 193.996 579.216 194.822 579.216C195.228 579.216 195.634 579.09 195.914 578.838ZM199.026 574.078C199.488 573.098 200.426 572.58 201.784 572.58V573.546C201.7 573.546 201.616 573.532 201.546 573.532C200.006 573.532 199.068 574.512 199.068 576.248V580H198.074V572.636H199.026V574.078ZM206.146 572.58C208.05 572.58 209.128 573.532 209.128 575.436V580H208.176V578.852C207.728 579.608 206.86 580.07 205.642 580.07C203.976 580.07 202.954 579.202 202.954 577.928C202.954 576.794 203.682 575.842 205.796 575.842H208.134V575.394C208.134 574.134 207.42 573.448 206.048 573.448C205.096 573.448 204.2 573.784 203.598 574.316L203.15 573.574C203.892 572.944 204.984 572.58 206.146 572.58ZM205.796 579.286C206.916 579.286 207.742 578.754 208.134 577.788V576.584H205.824C204.396 576.584 203.934 577.144 203.934 577.9C203.934 578.754 204.62 579.286 205.796 579.286ZM215.579 572.58C217.371 572.58 218.603 573.616 218.603 575.73V580H217.609V575.828C217.609 574.274 216.797 573.476 215.397 573.476C213.815 573.476 212.821 574.456 212.821 576.136V580H211.827V572.636H212.779V573.994C213.311 573.098 214.305 572.58 215.579 572.58ZM223.276 580.07C222.058 580.07 220.882 579.678 220.28 579.16L220.728 578.376C221.316 578.838 222.31 579.202 223.346 579.202C224.746 579.202 225.32 578.726 225.32 577.998C225.32 576.08 220.546 577.592 220.546 574.68C220.546 573.476 221.582 572.58 223.458 572.58C224.41 572.58 225.446 572.846 226.062 573.266L225.628 574.064C224.984 573.616 224.214 573.434 223.458 573.434C222.128 573.434 221.54 573.952 221.54 574.652C221.54 576.64 226.314 575.142 226.314 577.97C226.314 579.244 225.194 580.07 223.276 580.07ZM230.728 572.58C232.632 572.58 233.71 573.532 233.71 575.436V580H232.758V578.852C232.31 579.608 231.442 580.07 230.224 580.07C228.558 580.07 227.536 579.202 227.536 577.928C227.536 576.794 228.264 575.842 230.378 575.842H232.716V575.394C232.716 574.134 232.002 573.448 230.63 573.448C229.678 573.448 228.782 573.784 228.18 574.316L227.732 573.574C228.474 572.944 229.566 572.58 230.728 572.58ZM230.378 579.286C231.498 579.286 232.324 578.754 232.716 577.788V576.584H230.406C228.978 576.584 228.516 577.144 228.516 577.9C228.516 578.754 229.202 579.286 230.378 579.286ZM239.489 580.07C237.291 580.07 235.695 578.516 235.695 576.318C235.695 574.12 237.291 572.58 239.489 572.58C240.735 572.58 241.785 573.07 242.373 574.036L241.631 574.54C241.127 573.798 240.343 573.448 239.489 573.448C237.879 573.448 236.703 574.596 236.703 576.318C236.703 578.054 237.879 579.188 239.489 579.188C240.343 579.188 241.127 578.852 241.631 578.11L242.373 578.614C241.785 579.566 240.735 580.07 239.489 580.07ZM247.935 578.838L248.285 579.552C247.893 579.902 247.305 580.07 246.731 580.07C245.345 580.07 244.575 579.286 244.575 577.928V573.476H243.259V572.636H244.575V571.026H245.569V572.636H247.809V573.476H245.569V577.872C245.569 578.74 246.017 579.216 246.843 579.216C247.249 579.216 247.655 579.09 247.935 578.838ZM250.599 571.026C250.193 571.026 249.871 570.704 249.871 570.312C249.871 569.934 250.193 569.612 250.599 569.612C251.005 569.612 251.327 569.92 251.327 570.298C251.327 570.704 251.019 571.026 250.599 571.026ZM250.095 580V572.636H251.089V580H250.095ZM256.865 580.07C254.709 580.07 253.113 578.502 253.113 576.318C253.113 574.134 254.709 572.58 256.865 572.58C259.021 572.58 260.603 574.134 260.603 576.318C260.603 578.502 259.021 580.07 256.865 580.07ZM256.865 579.188C258.433 579.188 259.595 578.04 259.595 576.318C259.595 574.596 258.433 573.448 256.865 573.448C255.297 573.448 254.121 574.596 254.121 576.318C254.121 578.04 255.297 579.188 256.865 579.188ZM266.384 572.58C268.176 572.58 269.408 573.616 269.408 575.73V580H268.414V575.828C268.414 574.274 267.602 573.476 266.202 573.476C264.62 573.476 263.626 574.456 263.626 576.136V580H262.632V572.636H263.584V573.994C264.116 573.098 265.11 572.58 266.384 572.58ZM272.233 582.716H271.281C272.401 580.798 272.891 578.656 272.891 576.164C272.891 573.672 272.401 571.53 271.281 569.612H272.233C273.283 571.278 273.871 573.588 273.871 576.164C273.871 578.74 273.283 581.022 272.233 582.716Z" fill="black"/>
</svg>
